<svg id="Слой_1" data-name="Слой 1" xmlns="http://www.w3.org/2000/svg" viewBox="0 0 60.8 20.3">
  <defs>
    <style>
      .cls-1 {
        fill: #1e1928;
      }
    </style>
  </defs>
  <g>
    <path class="cls-1" d="M30.4,19.8h-.2a4,4,0,0,1-1.5-.3L2.5,7.3a3.5,3.5,0,0,1-1.8-2A3.9,3.9,0,0,1,.8,2.5,3.6,3.6,0,0,1,4,.5,4,4,0,0,1,5.5.8L30.4,12.4,55.3.8A4,4,0,0,1,56.8.5a3.6,3.6,0,0,1,3.2,2,3.9,3.9,0,0,1,.1,2.8,3.5,3.5,0,0,1-1.8,2L32.1,19.5a4,4,0,0,1-1.5.3Z" transform="translate(0 0)"/>
    <path class="cls-1" d="M56.8,1a2.8,2.8,0,0,1,2.7,1.8,3,3,0,0,1-1.4,4L31.9,19a2.8,2.8,0,0,1-1.3.3h-.4a2.8,2.8,0,0,1-1.3-.3L2.8,6.8a3,3,0,0,1-1.5-4h0A2.8,2.8,0,0,1,4,1a2.8,2.8,0,0,1,1.3.3L30,12.8l.4.2.4-.2L55.5,1.3A2.8,2.8,0,0,1,56.8,1m0-1a3.3,3.3,0,0,0-1.7.4L30.4,11.9,5.8.4A3.9,3.9,0,0,0,4,0,4.1,4.1,0,0,0,.4,2.3,4,4,0,0,0,2.2,7.7h.1L28.5,19.9a3.3,3.3,0,0,0,1.7.4h.4a3.3,3.3,0,0,0,1.7-.4L58.5,7.7a4,4,0,0,0,2-5.2.1.1,0,0,1-.1-.1h0A4.1,4.1,0,0,0,56.8,0Z" transform="translate(0 0)"/>
  </g>
</svg>
