<svg width="54" height="54" viewBox="0 0 54 54" fill="none" xmlns="http://www.w3.org/2000/svg">
<path d="M49.467 13.5268C47.0971 9.36468 43.8807 6.0697 39.8179 3.64182C35.7551 1.21394 31.3295 0 26.517 0C21.7046 0 17.2669 1.21394 13.2041 3.64182C9.14131 6.0697 5.92492 9.36468 3.55495 13.5268C1.18498 17.6888 0 22.2349 0 27.1526C0 33.0737 1.68074 38.3878 5.05432 43.1196C8.4279 47.8515 12.7809 51.1217 18.1254 52.9303C18.7421 53.0541 19.2016 52.9674 19.5039 52.6825C19.8062 52.3976 19.9513 52.0508 19.9513 51.6172C19.9513 51.5429 19.9513 50.9112 19.9392 49.7096C19.9271 48.508 19.9271 47.4551 19.9271 46.5633L19.129 46.6995C18.6212 46.7986 17.9803 46.8358 17.2185 46.8234C16.4447 46.811 15.6466 46.7243 14.8244 46.5757C13.9901 46.427 13.2283 46.0678 12.5149 45.5104C11.8015 44.9529 11.2936 44.2345 10.9913 43.3302L10.6407 42.5127C10.4109 41.9676 10.0482 41.3731 9.55242 40.7041C9.05667 40.0476 8.56091 39.6017 8.05306 39.3663L7.81122 39.1929C7.65403 39.069 7.49684 38.9328 7.36383 38.7718C7.23082 38.6107 7.122 38.4373 7.04945 38.2763C6.9769 38.1152 7.03736 37.979 7.21873 37.8675C7.40011 37.756 7.73867 37.7312 8.22234 37.7312L8.91156 37.8427C9.37105 37.9418 9.93936 38.2143 10.6165 38.6974C11.2936 39.1681 11.8498 39.7875 12.2851 40.5307C12.8172 41.4969 13.458 42.2402 14.1956 42.7356C14.9453 43.2435 15.695 43.4913 16.4568 43.4913C17.2185 43.4913 17.8715 43.4293 18.4277 43.3178C18.9839 43.194 19.4918 43.0205 19.9754 42.7852C20.181 41.1996 20.7493 39.9857 21.6683 39.1434C20.3624 39.0071 19.1774 38.7841 18.1254 38.5116C17.0734 38.2267 15.9973 37.7684 14.8849 37.1367C13.7724 36.5049 12.8414 35.7121 12.1038 34.7707C11.3662 33.8293 10.7616 32.5906 10.29 31.0546C9.81844 29.5186 9.57661 27.7596 9.57661 25.7529C9.57661 22.9038 10.4835 20.4759 12.3093 18.4692C11.4629 16.3263 11.5355 13.9231 12.5512 11.2599C13.2162 11.0493 14.2077 11.2104 15.5257 11.743C16.8437 12.2757 17.7989 12.734 18.4035 13.1056C19.0081 13.4772 19.5039 13.7993 19.8666 14.0594C22.0069 13.4524 24.2196 13.1428 26.4929 13.1428C28.7661 13.1428 30.9789 13.4524 33.1191 14.0594L34.425 13.2171C35.3198 12.6473 36.3839 12.127 37.6051 11.6563C38.8264 11.1856 39.7574 11.0493 40.3983 11.2723C41.4382 13.9355 41.5228 16.3386 40.6764 18.4816C42.4902 20.4883 43.4091 22.9162 43.4091 25.7653C43.4091 27.772 43.1673 29.5433 42.6957 31.0917C42.2241 32.6401 41.6195 33.8788 40.8699 34.8079C40.1202 35.7369 39.1891 36.5297 38.0767 37.1614C36.9643 37.7932 35.876 38.2639 34.8361 38.5364C33.7841 38.8213 32.6112 39.0319 31.2933 39.1681C32.4903 40.2334 33.0828 41.9057 33.0828 44.1849V51.642C33.0828 52.0632 33.2279 52.4224 33.5181 52.7073C33.8083 52.9922 34.2557 53.0789 34.8845 52.955C40.229 51.1341 44.582 47.8639 47.9556 43.1444C51.3292 38.4125 53.0099 33.0984 53.0099 27.1774C53.022 22.2349 51.837 17.6888 49.467 13.5268Z" fill="#2DABA4"/>
</svg>
