<?xml version="1.0" encoding="utf-8"?>
<!-- Generator: Adobe Illustrator 25.2.0, SVG Export Plug-In . SVG Version: 6.00 Build 0)  -->
<svg version="1.1" id="Слой_1" xmlns="http://www.w3.org/2000/svg" xmlns:xlink="http://www.w3.org/1999/xlink" x="0px" y="0px"
	 viewBox="0 0 54 54" style="enable-background:new 0 0 54 54;" xml:space="preserve">
<path d="M49.5,13.5c-2.4-4.2-5.6-7.5-9.6-9.9S31.3,0,26.5,0c-4.8,0-9.3,1.2-13.3,3.6c-4.1,2.4-7.3,5.7-9.6,9.9
	C1.2,17.7,0,22.2,0,27.2c0,5.9,1.7,11.2,5.1,16c3.4,4.7,7.7,8,13.1,9.8c0.6,0.1,1.1,0,1.4-0.2c0.3-0.3,0.4-0.6,0.4-1.1
	c0-0.1,0-0.7,0-1.9c0-1.2,0-2.3,0-3.1l-0.8,0.1c-0.5,0.1-1.1,0.1-1.9,0.1c-0.8,0-1.6-0.1-2.4-0.2c-0.8-0.1-1.6-0.5-2.3-1.1
	c-0.7-0.6-1.2-1.3-1.5-2.2l-0.4-0.8c-0.2-0.5-0.6-1.1-1.1-1.8c-0.5-0.7-1-1.1-1.5-1.3l-0.2-0.2c-0.2-0.1-0.3-0.3-0.4-0.4
	c-0.1-0.2-0.2-0.3-0.3-0.5C7,38.1,7,38,7.2,37.9c0.2-0.1,0.5-0.1,1-0.1l0.7,0.1c0.5,0.1,1,0.4,1.7,0.9c0.7,0.5,1.2,1.1,1.7,1.8
	c0.5,1,1.2,1.7,1.9,2.2c0.7,0.5,1.5,0.8,2.3,0.8c0.8,0,1.4-0.1,2-0.2c0.6-0.1,1.1-0.3,1.5-0.5c0.2-1.6,0.8-2.8,1.7-3.6
	c-1.3-0.1-2.5-0.4-3.5-0.6c-1.1-0.3-2.1-0.7-3.2-1.4c-1.1-0.6-2-1.4-2.8-2.4c-0.7-0.9-1.3-2.2-1.8-3.7c-0.5-1.5-0.7-3.3-0.7-5.3
	c0-2.8,0.9-5.3,2.7-7.3c-0.8-2.1-0.8-4.5,0.2-7.2c0.7-0.2,1.7,0,3,0.5c1.3,0.5,2.3,1,2.9,1.4c0.6,0.4,1.1,0.7,1.5,1
	c2.1-0.6,4.4-0.9,6.6-0.9c2.3,0,4.5,0.3,6.6,0.9l1.3-0.8c0.9-0.6,2-1.1,3.2-1.6c1.2-0.5,2.2-0.6,2.8-0.4c1,2.7,1.1,5.1,0.3,7.2
	c1.8,2,2.7,4.4,2.7,7.3c0,2-0.2,3.8-0.7,5.3c-0.5,1.5-1.1,2.8-1.8,3.7c-0.7,0.9-1.7,1.7-2.8,2.4c-1.1,0.6-2.2,1.1-3.2,1.4
	c-1.1,0.3-2.2,0.5-3.5,0.6c1.2,1.1,1.8,2.7,1.8,5v7.5c0,0.4,0.1,0.8,0.4,1.1c0.3,0.3,0.7,0.4,1.4,0.2c5.3-1.8,9.7-5.1,13.1-9.8
	c3.4-4.7,5.1-10,5.1-16C53,22.2,51.8,17.7,49.5,13.5z"/>
</svg>
