<svg xmlns="http://www.w3.org/2000/svg" viewBox="0 0 2655.97609 2835.81205">
  <defs>
    <style>
      .cls-1 {
        fill: #e6e6e6;
      }

      .cls-11, .cls-2 {
        opacity: 0.3;
      }

      .cls-11, .cls-14, .cls-19, .cls-21, .cls-3, .cls-4, .cls-5, .cls-8, .cls-9 {
        fill: none;
      }

      .cls-11, .cls-3, .cls-4, .cls-5, .cls-8, .cls-9 {
        stroke: #000;
      }

      .cls-11, .cls-12, .cls-14, .cls-15, .cls-18, .cls-19, .cls-21, .cls-3, .cls-4, .cls-5, .cls-8, .cls-9 {
        stroke-miterlimit: 10;
        stroke-width: 15px;
      }

      .cls-4 {
        stroke-dasharray: 0.01029 0 10.2887 0;
      }

      .cls-5 {
        stroke-dasharray: 0.01029 10.26812 0.01029 0 10.2887 0;
      }

      .cls-6 {
        opacity: 0.15;
      }

      .cls-7 {
        fill: #404040;
      }

      .cls-8 {
        stroke-dasharray: 0.0103 0 10.29688 0;
      }

      .cls-9 {
        stroke-dasharray: 0.0103 10.27629 0.0103 0 10.29688 0;
      }

      .cls-10, .cls-15 {
        fill: #85b7e1;
      }

      .cls-11, .cls-18, .cls-19, .cls-21 {
        stroke-linecap: round;
      }

      .cls-11 {
        stroke-dasharray: 25 50;
      }

      .cls-12, .cls-16, .cls-18 {
        fill: #fcfcfc;
      }

      .cls-12, .cls-14, .cls-15, .cls-18, .cls-19 {
        stroke: #404040;
      }

      .cls-13, .cls-17 {
        opacity: 0.1;
      }

      .cls-20 {
        fill: #ebebeb;
      }

      .cls-21 {
        stroke: #b7556b;
      }
    </style>
  </defs>
  <g id="Слой_2" data-name="Слой 2">
    <path class="cls-1" d="M1369.87944,297.9698h-.79034v9.29492c-6.50451,134.44868-117.62254,241.46286-253.76671,241.46284-136.99771,0-248.65138-108.3616-253.87334-243.99642v7.30311c-.12692,3.295-.21126,6.601-.21126,9.92716s.08433,6.63212.21126,9.92715q-.15791-1.0935-.31591-2.18681c1.22272-86.46217-69.39527-156.70574-151.86926-156.08885-77.601.58041-144.62213,63.73718-149.38523,144.81139a133.64,133.64,0,0,1-.84879,45.83409c-10.832,55.1483-58.50313,106.751-111.19015,111.19011a91.2501,91.2501,0,0,1-22.06827-.84878,95.74135,95.74135,0,0,0-9.67114-.33073,74.87,74.87,0,0,1-8.81075-.19872c-1.10687-.09553-1.77941-.18132-1.88882-.18132A151.87959,151.87959,0,0,0,253.502,623.13611h-.03284l-.00009,466.82879,0,95.25189-.00017,904.6105c0,156.56855,126.92379,283.49241,283.49234,283.49244s283.49242-126.92379,283.49244-283.49234h.2869c0-111.50241,90.39061-201.893,201.893-201.89295v-.22732c111.29208.24672,201.437,90.53722,201.43695,201.88722h1.14863l-.0001,558.57366c-.09035,2.3443-.15044,4.69627-.15044,7.06263s.06009,4.71833.15044,7.06263v10.33653h.688a180.70683,180.70683,0,0,0,359.71015.00006h.76444v-12.34564c.04622-1.67922.074-3.3631.074-5.05351s-.02776-3.37429-.074-5.05351v-38.78474h.08227c-.03108-.32523-.05284-.65316-.08227-.97891l0-32.89446c7.69933-85.0598,74.40936-153.08877,158.89879-162.88184,1.44682.0342,2.89716.055,4.35206.055a180.66489,180.66489,0,0,0,179.85531-163.1822h.76424v-12.34564c.04621-1.67922.074-3.3631.074-5.05351s-.02777-3.37429-.074-5.05351l0-270.24057c10.59195-109.06114,99.4262-195.21453,209.7029-201.71454,163.82565-1.27044,296.24379-134.36594,296.24382-298.3896,0-.12609-.00456-.25105-.00476-.377h.26234l.00016-856.705c.046-1.67684.07377-3.35823.07377-5.04626s-.02777-3.36942-.07377-5.04626V579.22191h-.76278a180.32781,180.32781,0,0,0-358.95566-.00007h-.68632v10.31321c-.09035,2.34-.15,4.68735-.15,7.04926s.05968,4.70974.15,7.04948v18.67335a145.59208,145.59208,0,0,1-144.4629,127.39753c-.05761,0-.11438-.00228-.172-.00228q-.37953-.09853-.75926-.19727c-.05761,0-.11439.00207-.17179.00207A145.58421,145.58421,0,0,1,1784.85636,603.968c0-.402.01181-.80112.01513-1.2023h-.80672l.00005-278.99651c.053-1.93006.085-3.8651.085-5.8078s-.03192-3.87774-.085-5.8078v-14.1837h-.87821c-10.06618-105.21137-98.73918-187.49638-206.65355-187.4964S1379.94566,192.75843,1369.87944,297.9698Z"/>
    <g class="cls-2">
      <g>
        <line class="cls-3" x1="1372.53933" y1="497.85592" x2="1372.53933" y2="497.85592"/>
        <line class="cls-4" x1="1382.8074" y1="497.85592" x2="1393.10647" y2="497.85592"/>
        <line class="cls-5" x1="1393.10647" y1="497.85592" x2="1598.88039" y2="497.85592"/>
        <line class="cls-3" x1="1598.8904" y1="497.85592" x2="1598.8904" y2="497.85592"/>
      </g>
    </g>
    <g class="cls-2">
      <g>
        <line class="cls-3" x1="796.93288" y1="880.91445" x2="796.93288" y2="880.91445"/>
        <line class="cls-4" x1="796.93288" y1="870.64632" x2="796.93288" y2="860.34731"/>
        <line class="cls-5" x1="796.93288" y1="860.34731" x2="796.93288" y2="654.57335"/>
        <line class="cls-3" x1="796.93288" y1="654.56337" x2="796.93288" y2="654.56337"/>
      </g>
    </g>
    <g class="cls-6">
      <circle cx="1433.03933" cy="1815.35592" r="63"/>
    </g>
    <g class="cls-6">
      <circle cx="896.6689" cy="592.09283" r="25"/>
    </g>
    <g class="cls-6">
      <circle cx="2039.53933" cy="819.85592" r="73.5"/>
    </g>
    <g class="cls-6">
      <circle cx="411.1689" cy="1299.59283" r="42.5"/>
    </g>
    <g class="cls-6">
      <circle cx="2310.6689" cy="1538.09283" r="28"/>
    </g>
    <g class="cls-6">
      <circle cx="1639.1689" cy="247.59283" r="46.5"/>
    </g>
    <g class="cls-6">
      <circle cx="668.1689" cy="2061.59283" r="55.5"/>
    </g>
    <g class="cls-2">
      <g>
        <line class="cls-3" x1="1734.81251" y1="1842.90134" x2="1734.81251" y2="1842.90134"/>
        <line class="cls-4" x1="1745.08058" y1="1842.90134" x2="1755.37965" y2="1842.90134"/>
        <line class="cls-5" x1="1755.37965" y1="1842.90134" x2="1961.15357" y2="1842.90134"/>
        <line class="cls-3" x1="1961.16358" y1="1842.90134" x2="1961.16358" y2="1842.90134"/>
      </g>
    </g>
    <path class="cls-7" d="M1178.39009,468.85854h-3.6729v-3.955a8.586,8.586,0,0,0-8.586-8.586h0a8.586,8.586,0,0,0-8.586,8.586v3.955H1153.586a8.586,8.586,0,0,0-8.586,8.586v0a8.586,8.586,0,0,0,8.586,8.586h3.95914v3.67706a8.586,8.586,0,0,0,8.586,8.586h0a8.586,8.586,0,0,0,8.586-8.586v-3.67706h3.6729a8.586,8.586,0,0,0,8.586-8.586v0A8.586,8.586,0,0,0,1178.39009,468.85854Z"/>
    <path class="cls-7" d="M1623.67964,1622.14661h-4.58475v-4.93685a10.71759,10.71759,0,0,0-10.71762-10.7176h0a10.7176,10.7176,0,0,0-10.7176,10.7176v4.93685h-4.94205A10.7176,10.7176,0,0,0,1582,1632.86421v0a10.7176,10.7176,0,0,0,10.7176,10.7176h4.94205v4.58993a10.71765,10.71765,0,0,0,10.71762,10.71763h0a10.71761,10.71761,0,0,0,10.71759-10.71763v-4.58993h4.58475a10.7176,10.7176,0,0,0,10.7176-10.7176v0A10.7176,10.7176,0,0,0,1623.67964,1622.14661Z"/>
    <path class="cls-7" d="M868.00937,2303.63265h-6.271V2296.88a14.65952,14.65952,0,0,0-14.65955-14.65952h0A14.65952,14.65952,0,0,0,832.41925,2296.88v6.75263h-6.75973A14.65952,14.65952,0,0,0,811,2318.29217v0a14.65952,14.65952,0,0,0,14.65952,14.65952h6.75973v6.27811a14.65959,14.65959,0,0,0,14.65956,14.65956h0a14.65954,14.65954,0,0,0,14.65952-14.65956v-6.27811h6.271a14.65952,14.65952,0,0,0,14.65953-14.65952v0A14.65952,14.65952,0,0,0,868.00937,2303.63265Z"/>
    <path class="cls-7" d="M2647.39009,1133.45429h-3.6729v-3.955a8.586,8.586,0,0,0-8.586-8.586h0a8.586,8.586,0,0,0-8.586,8.586v3.955H2622.586a8.586,8.586,0,0,0-8.586,8.586v0a8.586,8.586,0,0,0,8.586,8.586h3.95914v3.67705a8.586,8.586,0,0,0,8.586,8.586h0a8.586,8.586,0,0,0,8.586-8.586v-3.67705h3.6729a8.586,8.586,0,0,0,8.586-8.586v0A8.586,8.586,0,0,0,2647.39009,1133.45429Z"/>
    <path class="cls-7" d="M383.31737,669.34752h-4.4349V664.572a10.3673,10.3673,0,0,0-10.36732-10.36731h0A10.36731,10.36731,0,0,0,358.14782,664.572v4.77549H353.3673A10.3673,10.3673,0,0,0,343,679.71483v0a10.36729,10.36729,0,0,0,10.3673,10.3673h4.78052v4.43992a10.36736,10.36736,0,0,0,10.36733,10.36733h0a10.36731,10.36731,0,0,0,10.3673-10.36733v-4.43992h4.4349a10.36729,10.36729,0,0,0,10.3673-10.3673v0A10.3673,10.3673,0,0,0,383.31737,669.34752Z"/>
    <path class="cls-7" d="M34.04274,1497.87894H30.29805v-4.03228a8.75383,8.75383,0,0,0-8.75385-8.75383h0a8.75383,8.75383,0,0,0-8.75383,8.75383v4.03228H8.75383A8.75383,8.75383,0,0,0,0,1506.63277v0a8.75383,8.75383,0,0,0,8.75383,8.75383h4.03652v3.74893a8.75387,8.75387,0,0,0,8.75385,8.75385h0a8.75384,8.75384,0,0,0,8.75383-8.75385v-3.74893h3.74469a8.75383,8.75383,0,0,0,8.75383-8.75383v0A8.75383,8.75383,0,0,0,34.04274,1497.87894Z"/>
    <path class="cls-7" d="M2253.7666,530.06995h-4.59431V525.1228a10.74,10.74,0,0,0-10.74-10.74h0a10.74,10.74,0,0,0-10.74,10.74v4.94715H2222.74a10.74,10.74,0,0,0-10.74,10.74v0a10.74,10.74,0,0,0,10.74,10.74h4.95236v4.59951a10.74,10.74,0,0,0,10.74,10.74h0a10.74,10.74,0,0,0,10.74-10.74V551.5499h4.59431a10.74,10.74,0,0,0,10.74-10.74v0A10.74,10.74,0,0,0,2253.7666,530.06995Z"/>
    <path class="cls-7" d="M2003.39009,2542.51812h-3.6729v-3.955a8.586,8.586,0,0,0-8.586-8.586h0a8.586,8.586,0,0,0-8.586,8.586v3.955H1978.586a8.586,8.586,0,0,0-8.586,8.586v0a8.586,8.586,0,0,0,8.586,8.586h3.95914v3.67705a8.586,8.586,0,0,0,8.586,8.586h0a8.586,8.586,0,0,0,8.586-8.586v-3.67705h3.6729a8.586,8.586,0,0,0,8.586-8.586v0A8.586,8.586,0,0,0,2003.39009,2542.51812Z"/>
    <path class="cls-7" d="M904.60787,8.49129H902.121V5.81344A5.81343,5.81343,0,0,0,896.30756,0h0a5.81343,5.81343,0,0,0-5.81344,5.81344V8.49129h-2.68067A5.81343,5.81343,0,0,0,882,14.30473v0a5.81343,5.81343,0,0,0,5.81344,5.81344h2.68067v2.48968a5.81346,5.81346,0,0,0,5.81345,5.81345h0a5.81344,5.81344,0,0,0,5.81344-5.81345V20.11818h2.48686a5.81343,5.81343,0,0,0,5.81344-5.81344v0A5.81343,5.81343,0,0,0,904.60787,8.49129Z"/>
    <path class="cls-7" d="M2510.93565,1788.49124h-5.93291v-6.38855a13.86914,13.86914,0,0,0-13.86916-13.86914h0a13.86912,13.86912,0,0,0-13.86913,13.86914v6.38855h-6.39527A13.86913,13.86913,0,0,0,2457,1802.36038v0a13.86913,13.86913,0,0,0,13.86914,13.86914h6.39527v5.93961a13.8692,13.8692,0,0,0,13.86917,13.86917h0a13.86915,13.86915,0,0,0,13.86913-13.86917v-5.93961h5.93291a13.86913,13.86913,0,0,0,13.86913-13.86914v0A13.86913,13.86913,0,0,0,2510.93565,1788.49124Z"/>
  </g>
  <g id="Слой_1" data-name="Слой 1">
    <g class="cls-2">
      <g>
        <line class="cls-3" x1="1485.3657" y1="1321.73119" x2="1485.3657" y2="1321.73119"/>
        <line class="cls-8" x1="1495.64201" y1="1321.73119" x2="1505.94917" y2="1321.73119"/>
        <line class="cls-9" x1="1505.94917" y1="1321.73119" x2="1814.8557" y2="1321.73107"/>
        <line class="cls-3" x1="1814.8657" y1="1321.73107" x2="1814.8657" y2="1321.73107"/>
      </g>
    </g>
    <g>
      <path class="cls-10" d="M1747.13667,807.09283h148.064a27.46826,27.46826,0,0,1,27.46826,27.46826v225.06348a27.46826,27.46826,0,0,1-27.46826,27.46826H1747.13716a27.46826,27.46826,0,0,1-27.46826-27.46826V834.5606A27.46777,27.46777,0,0,1,1747.13667,807.09283Z"/>
      <path class="cls-7" d="M1895.20076,814.59283A19.96817,19.96817,0,0,1,1915.1689,834.561v225.06372a19.96817,19.96817,0,0,1-19.96814,19.96814H1747.137a19.96816,19.96816,0,0,1-19.96814-19.96814V834.561a19.96816,19.96816,0,0,1,19.96814-19.96814h148.06372m0-15H1747.137A35.00775,35.00775,0,0,0,1712.1689,834.561v225.06372a35.00774,35.00774,0,0,0,34.96814,34.96814h148.06372a35.00775,35.00775,0,0,0,34.96814-34.96814V834.561a35.00775,35.00775,0,0,0-34.96814-34.96814Z"/>
    </g>
    <path class="cls-11" d="M1304.1689,1123.59283c-12.90222-13.08929-45.10608-49.31708-54-106-7.93427-50.56674,9.0935-89.97723,26-130,9.66137-22.87149,25.71655-57.8512,60-92,17.02466-16.95785,76.18774-75.88858,156-71,14.87451.91109,73.61694,4.50911,93,45,14.9071,31.14081-1.90711,66.4805-5,73-3.79492,7.99918-16.53748,34.85822-45,46-41.71082,16.32785-83.88013-14.1344-92-20-44.94129-32.46451-68.74524-98.608-53-150,26.77978-87.4082,162.8739-114.81651,254-96,25.60583,5.28732,125.968,30.39394,156,113a145.731,145.731,0,0,1,8,60"/>
    <g class="cls-2">
      <g>
        <line class="cls-3" x1="595.04658" y1="1078.3695" x2="595.04658" y2="1078.3695"/>
        <line class="cls-8" x1="605.32289" y1="1078.3695" x2="615.63005" y2="1078.3695"/>
        <line class="cls-9" x1="615.63005" y1="1078.3695" x2="924.53657" y2="1078.36938"/>
        <line class="cls-3" x1="924.54658" y1="1078.36938" x2="924.54658" y2="1078.36938"/>
      </g>
    </g>
    <g class="cls-2">
      <g>
        <line class="cls-3" x1="978.66871" y1="1703.59271" x2="978.66871" y2="1703.59271"/>
        <line class="cls-8" x1="978.66871" y1="1693.31646" x2="978.66871" y2="1683.00921"/>
        <line class="cls-9" x1="978.66871" y1="1683.00921" x2="978.66871" y2="1374.10272"/>
        <line class="cls-3" x1="978.66871" y1="1374.09271" x2="978.66871" y2="1374.09271"/>
      </g>
    </g>
    <g>
      <g>
        <polygon class="cls-12" points="1314.169 1509.593 1127.169 1509.593 1142.169 1245.593 1299.169 1245.593 1314.169 1509.593"/>
        <polygon class="cls-13" points="1130.393 1463.093 1311.37 1463.093 1309.211 1425.093 1132.552 1425.093 1130.393 1463.093"/>
        <polygon class="cls-14" points="1314.169 1506.593 1127.169 1506.593 1142.169 1242.593 1299.169 1242.593 1314.169 1506.593"/>
      </g>
      <rect class="cls-12" x="839.6689" y="948.09283" width="763" height="470.5" rx="52.3617"/>
      <rect class="cls-15" x="883.16697" y="988.62698" width="677.99805" height="348.96585" rx="6.62992"/>
      <rect class="cls-14" x="839.7859" y="948.26837" width="763.00006" height="470.5" rx="52.36169"/>
      <g>
        <rect class="cls-12" x="1067.1689" y="1503.09283" width="306" height="36" rx="17.99998" transform="translate(2440.33779 3042.18566) rotate(-180)"/>
        <rect class="cls-12" x="1067.2689" y="1502.59283" width="306" height="36" rx="17.99998" transform="translate(2440.53779 3041.18566) rotate(-180)"/>
        <rect class="cls-14" x="1067.7689" y="1503.09283" width="306" height="36" rx="17.99998" transform="translate(2441.53779 3042.18566) rotate(-180)"/>
        <path class="cls-13" d="M1085.7689,1538.59283h270a18,18,0,0,0,18-18h-306A17.99995,17.99995,0,0,0,1085.7689,1538.59283Z"/>
        <rect class="cls-14" x="1067.7689" y="1503.09283" width="306" height="36" rx="17.99998" transform="translate(2441.53779 3042.18566) rotate(-180)"/>
      </g>
    </g>
    <g>
      <path class="cls-10" d="M871.40278,1690.09283h215.53174a30.73438,30.73438,0,0,1,30.73438,30.73438v83.53174a30.73389,30.73389,0,0,1-30.73389,30.73389H871.40327a30.73438,30.73438,0,0,1-30.73437-30.73437v-83.53174A30.73389,30.73389,0,0,1,871.40278,1690.09283Z"/>
      <path class="cls-7" d="M1086.93483,1697.59283a23.234,23.234,0,0,1,23.23407,23.234v83.532a23.234,23.234,0,0,1-23.23407,23.234H871.403a23.234,23.234,0,0,1-23.23407-23.234v-83.532a23.234,23.234,0,0,1,23.23407-23.234h215.53186m0-15H871.403a38.27736,38.27736,0,0,0-38.23407,38.234v83.532a38.27736,38.27736,0,0,0,38.23407,38.234h215.53186a38.27736,38.27736,0,0,0,38.23407-38.234v-83.532a38.27736,38.27736,0,0,0-38.23407-38.234Z"/>
    </g>
    <g>
      <path class="cls-16" d="M915.45991,1738.13092h6.16065v21.1416h.14013a11.42978,11.42978,0,0,1,4.41065-4.33985,12.67052,12.67052,0,0,1,6.30029-1.75c4.55078,0,11.83154,2.79981,11.83154,14.49122V1787.836h-6.16064v-19.46192c0-5.46094-2.03027-10.08105-7.84082-10.08105a8.8505,8.8505,0,0,0-8.26074,6.16113,7.45393,7.45393,0,0,0-.42041,2.93945V1787.836h-6.16065Z"/>
      <path class="cls-16" d="M961.45064,1744.22174v9.73047h8.8208v4.6914h-8.8208v18.27149c0,4.20019,1.18994,6.58007,4.6206,6.58007a13.70625,13.70625,0,0,0,3.57031-.41992l.28028,4.6211a15.10245,15.10245,0,0,1-5.46094.83984,8.53494,8.53494,0,0,1-6.65039-2.59082c-1.75049-1.81934-2.38037-4.83008-2.38037-8.82031v-18.48145h-5.25049v-4.6914h5.25049v-8.1211Z"/>
      <path class="cls-16" d="M977.19917,1763.12408c0-3.501-.06982-6.37109-.27978-9.17187H982.31l.27979,5.46093h.21a11.67839,11.67839,0,0,1,10.64111-6.23047,10.01625,10.01625,0,0,1,9.59131,6.791h.13965a13.95291,13.95291,0,0,1,3.78076-4.41113,11.564,11.564,0,0,1,7.49072-2.37989c4.48047,0,11.13086,2.93946,11.13086,14.70118V1787.836h-6.02051v-19.18262c0-6.50977-2.37988-10.43067-7.35058-10.43067a7.97667,7.97667,0,0,0-7.28077,5.60059,10.1399,10.1399,0,0,0-.49023,3.08008V1787.836h-6.02051v-20.30176c0-5.39063-2.38037-9.31153-7.0708-9.31153-3.85058,0-6.65039,3.08106-7.63086,6.16114a8.48859,8.48859,0,0,0-.48974,3.00976V1787.836h-6.021Z"/>
      <path class="cls-16" d="M1035.57905,1738.13092h6.16065V1787.836h-6.16065Z"/>
    </g>
    <path class="cls-13" d="M1089.56412,1697.69439a23.42133,23.42133,0,0,1,.20318,3.03089v83.53186a23.234,23.234,0,0,1-23.23407,23.23413H851.00137a23.41954,23.41954,0,0,1-3.03088-.20313,23.23332,23.23332,0,0,0,23.03088,20.20313h215.53186a23.234,23.234,0,0,0,23.23407-23.23413v-83.53186A23.23337,23.23337,0,0,0,1089.56412,1697.69439Z"/>
    <g>
      <g>
        <path class="cls-10" d="M403.1689,1168.09283a73.50166,73.50166,0,0,1-21.01172-143.93555,93.5013,93.5013,0,0,1,172.22265-40.26269,93.50788,93.50788,0,1,1,22.78907,184.19824Z"/>
        <path class="cls-7" d="M475.1689,947.59283a85.98069,85.98069,0,0,1,75.67224,45.10877,86.00856,86.00856,0,1,1,26.32776,167.89123h-174a66.00056,66.00056,0,0,1-13.91107-130.51831,85.98988,85.98988,0,0,1,85.91107-82.48169m0-15a101.01657,101.01657,0,0,0-99.86829,85.94775,80.9984,80.9984,0,0,0,27.86829,157.05225h174A101,101,0,1,0,557.773,975.45837a100.95213,100.95213,0,0,0-82.60409-42.86554Z"/>
      </g>
      <path class="cls-13" d="M614.48033,996.55944a86.02483,86.02483,0,0,1-77.39209,123.53339H340.6689a71.87893,71.87893,0,0,0,62.55763,40h174a86.013,86.013,0,0,0,37.25379-163.53339Z"/>
      <g>
        <path class="cls-16" d="M483.15376,1095.296c-2.24023,1.12011-6.7207,2.24023-12.46143,2.24023-13.30127,0-23.3125-8.40137-23.3125-23.87256,0-14.77148,10.01123-24.78271,24.64258-24.78271,5.88086,0,9.59131,1.26025,11.20117,2.10009l-1.46972,4.97071a22.18542,22.18542,0,0,0-9.521-1.96045c-11.06152,0-18.41211,7.0708-18.41211,19.4624,0,11.55127,6.65088,18.97217,18.13184,18.97217a24.37312,24.37312,0,0,0,9.94092-1.96094Z"/>
        <path class="cls-16" d="M489.9394,1089.4151a21.57886,21.57886,0,0,0,10.9209,3.08007c6.231,0,9.8711-3.29,9.8711-8.05029,0-4.41064-2.52-6.93115-8.89063-9.38135-7.70117-2.73-12.46142-6.7207-12.46142-13.37109,0-7.35107,6.09082-12.81152,15.26171-12.81152a21.43691,21.43691,0,0,1,10.43116,2.31054l-1.68018,4.97022a18.79823,18.79823,0,0,0-8.96094-2.24024c-6.44091,0-8.89111,3.85059-8.89111,7.07081,0,4.41064,2.87012,6.58056,9.38086,9.10107,7.981,3.08008,12.0415,6.93066,12.0415,13.86133,0,7.28076-5.39062,13.58154-16.522,13.58154-4.55029,0-9.521-1.33008-12.041-3.01074Z"/>
        <path class="cls-16" d="M524.44917,1089.4151a21.57883,21.57883,0,0,0,10.9209,3.08007c6.231,0,9.87109-3.29,9.87109-8.05029,0-4.41064-2.52-6.93115-8.89062-9.38135-7.70117-2.73-12.46143-6.7207-12.46143-13.37109,0-7.35107,6.09082-12.81152,15.26172-12.81152a21.43683,21.43683,0,0,1,10.43115,2.31054l-1.68017,4.97022a18.79823,18.79823,0,0,0-8.96094-2.24024c-6.44092,0-8.89111,3.85059-8.89111,7.07081,0,4.41064,2.87011,6.58056,9.38086,9.10107,7.981,3.08008,12.0415,6.93066,12.0415,13.86133,0,7.28076-5.39063,13.58154-16.522,13.58154-4.5503,0-9.521-1.33008-12.041-3.01074Z"/>
      </g>
      <path class="cls-7" d="M475.09443,947.59283a85.98069,85.98069,0,0,1,75.67225,45.10877,86.00856,86.00856,0,1,1,26.32775,167.89123h-174a66.00056,66.00056,0,0,1-13.91107-130.51831,85.98988,85.98988,0,0,1,85.91107-82.48169m0-15a101.01657,101.01657,0,0,0-99.86828,85.94775,80.9984,80.9984,0,0,0,27.86828,157.05225h174a101,101,0,1,0-19.3959-200.13446,100.95213,100.95213,0,0,0-82.6041-42.86554Z"/>
    </g>
    <g>
      <path class="cls-16" d="M1766.75874,926.211a70.62861,70.62861,0,0,1,11.69141-.91016c6.0205,0,10.43164,1.40039,13.23144,3.92041a12.68767,12.68767,0,0,1,4.13086,9.87109c0,4.27051-1.26074,7.63086-3.64062,10.08106-3.22071,3.43066-8.47071,5.18066-14.42188,5.18066a20.96069,20.96069,0,0,1-4.90039-.41992V972.836h-6.09082Zm6.09082,22.75244a20.42533,20.42533,0,0,0,5.041.49023c7.35058,0,11.83105-3.57031,11.83105-10.08105,0-6.231-4.41113-9.24121-11.13183-9.24121a25.53663,25.53663,0,0,0-5.74024.49023Z"/>
      <path class="cls-16" d="M1810.0898,925.65094v19.74218h22.82226V925.65094h6.16113V972.836h-6.16113V950.71392H1810.0898V972.836H1803.999V925.65094Z"/>
      <path class="cls-16" d="M1849.63862,926.211a70.62861,70.62861,0,0,1,11.69141-.91016c6.02051,0,10.43066,1.40039,13.23145,3.92041a12.6877,12.6877,0,0,1,4.13085,9.87109c0,4.27051-1.26074,7.63086-3.64062,10.08106-3.2207,3.43066-8.4707,5.18066-14.42188,5.18066a20.96069,20.96069,0,0,1-4.90039-.41992V972.836h-6.09082Zm6.09082,22.75244a20.42538,20.42538,0,0,0,5.041.49023c7.35059,0,11.83105-3.57031,11.83105-10.08105,0-6.231-4.41113-9.24121-11.13183-9.24121a25.53663,25.53663,0,0,0-5.74024.49023Z"/>
    </g>
    <g class="cls-17">
      <path d="M1896.70081,1080.09283a19.96809,19.96809,0,0,0,19.96809-19.96808V835.06092a19.96809,19.96809,0,0,0-19.96809-19.96809H1867.6689v265Z"/>
    </g>
    <g>
      <g>
        <rect class="cls-16" x="1830.6689" y="1166.09283" width="321" height="431" rx="23.07422"/>
        <path class="cls-7" d="M2128.59443,1173.59283a15.57443,15.57443,0,0,1,15.57447,15.57446v384.85108a15.57443,15.57443,0,0,1-15.57447,15.57446H1853.74336a15.57443,15.57443,0,0,1-15.57446-15.57446V1189.16729a15.57443,15.57443,0,0,1,15.57446-15.57446h274.85107m0-15H1853.74336a30.609,30.609,0,0,0-30.57446,30.57446v384.85108a30.609,30.609,0,0,0,30.57446,30.57446h274.85107a30.609,30.609,0,0,0,30.57447-30.57446V1189.16729a30.609,30.609,0,0,0-30.57447-30.57446Z"/>
      </g>
      <g>
        <path class="cls-7" d="M1975.46675,1472.73639h6.09082v31.57324c0,12.53125-6.16016,16.38183-14.28125,16.38183a19.72709,19.72709,0,0,1-6.51074-1.12011l.91015-4.97071a14.51962,14.51962,0,0,0,5.11035.91016c5.46094,0,8.68067-2.4502,8.68067-11.69141Z"/>
        <path class="cls-7" d="M1990.86616,1512.50006a21.57886,21.57886,0,0,0,10.9209,3.08008c6.23047,0,9.87109-3.29,9.87109-8.04981,0-4.41113-2.5205-6.93164-8.89062-9.38183-7.70117-2.7295-12.46191-6.72071-12.46191-13.3711,0-7.35058,6.09082-12.81152,15.26171-12.81152a21.43775,21.43775,0,0,1,10.43165,2.31054l-1.68067,4.97071a18.79473,18.79473,0,0,0-8.96094-2.24024c-6.44043,0-8.89062,3.85059-8.89062,7.07032,0,4.41113,2.87012,6.58105,9.38086,9.10156,7.98047,3.08008,12.041,6.93066,12.041,13.86133,0,7.28027-5.39062,13.58105-16.52148,13.58105-4.55078,0-9.52149-1.33008-12.041-3.01074Z"/>
      </g>
      <line class="cls-18" x1="1880.1689" y1="1223.59283" x2="2102.88166" y2="1223.59283"/>
      <line class="cls-18" x1="1880.03592" y1="1261.51836" x2="2102.74868" y2="1261.51836"/>
      <line class="cls-18" x1="1880.03592" y1="1299.51836" x2="2102.74868" y2="1299.51836"/>
      <line class="cls-18" x1="1880.03592" y1="1337.53964" x2="2102.74868" y2="1337.53964"/>
      <line class="cls-18" x1="1880.03592" y1="1375.53964" x2="2102.74868" y2="1375.53964"/>
      <g class="cls-17">
        <path d="M2129.09443,1173.09283H2104.6689v360.42554a15.57443,15.57443,0,0,1-15.57447,15.57446H1838.6689v24.42554a15.57443,15.57443,0,0,0,15.57446,15.57446h274.85107a15.57443,15.57443,0,0,0,15.57447-15.57446V1188.66729A15.57443,15.57443,0,0,0,2129.09443,1173.09283Z"/>
      </g>
      <line class="cls-18" x1="1880.24873" y1="1413.53961" x2="2102.9615" y2="1413.53961"/>
    </g>
    <line class="cls-19" x1="979.1689" y1="1029.56091" x2="1036.05189" y2="1029.56091"/>
    <line class="cls-19" x1="1216.94549" y1="1029.86093" x2="1238.3923" y2="1029.86093"/>
    <line class="cls-19" x1="1286.94549" y1="1029.81833" x2="1308.3923" y2="1029.81833"/>
    <line class="cls-19" x1="1356.94549" y1="1029.81624" x2="1378.3923" y2="1029.81624"/>
    <path class="cls-20" d="M1408.6689,1104.09283c-40.12439-7.8667-45.74512-20.131-63-16-31.28028,7.48877-43.05188,55.04205-44,59-9.91028,41.37256,6.876,92.24707,32,98,12.295,2.81531,15.5039-7.71313,37.5-14.5,46.64721-14.39294,76.33508,19.34412,100.5,2.5,16.8728-11.76123,16.95483-38.35547,17-53,.02112-6.8573-.50208-49.72314-28.5-67.5C1446.74519,1104.06964,1441.53328,1110.53619,1408.6689,1104.09283Z"/>
    <line class="cls-19" x1="1426.94549" y1="1029.81624" x2="1448.3923" y2="1029.81624"/>
    <line class="cls-19" x1="978.66871" y1="1183.51837" x2="1081.24337" y2="1183.51837"/>
    <line class="cls-21" x1="978.66871" y1="1233.3056" x2="1058.6689" y2="1233.3056"/>
    <line class="cls-19" x1="978.99859" y1="1159.13538" x2="1081.57325" y2="1159.13538"/>
    <line class="cls-19" x1="978.5305" y1="1133.98645" x2="1081.10516" y2="1133.98645"/>
    <path class="cls-16" d="M1429.58331,1147.59283a7.09922,7.09922,0,0,1-6.70454-4.92636,24.99957,24.99957,0,0,0-47.41975,0,7.09922,7.09922,0,0,1-6.70454,4.92636h-23.55367a7.03191,7.03191,0,0,0-7.03191,7.03192v39.93617a7.03191,7.03191,0,0,0,7.03191,7.03191H1452.137a7.03191,7.03191,0,0,0,7.03192-7.03191v-39.93617a7.03192,7.03192,0,0,0-7.03192-7.03192Z"/>
  </g>
</svg>
