<svg id="Слой_1" data-name="Слой 1" xmlns="http://www.w3.org/2000/svg" viewBox="0 0 690 563.9">
  <defs>
    <style>
      .cls-1 {
        fill: #e6e6e6;
      }

      .cls-2 {
        fill: #fcfcfc;
      }

      .cls-3 {
        fill: #333;
      }

      .cls-4 {
        fill: #1a1a1a;
      }

      .cls-5 {
        fill: #666;
      }

      .cls-6 {
        fill: #ccc;
      }

      .cls-7 {
        fill: #8c8c8c;
      }

      .cls-8 {
        fill: #a6a6a6;
      }

      .cls-9 {
        fill: #c92624;
      }

      .cls-10 {
        fill: gray;
      }
    </style>
  </defs>
  <path class="cls-1" d="M447,77.7c-28.3-7.6-67.1-4.9-93,17s-16.1,43.9-42,63c-19.2,14.3-30.6,5.1-91,16-62.7,11.3-76.5,18.3-88,29-4.4,4.1-25.8,24.9-28,56-1.2,16.8,3.6,30.4,12,48,33.6,71,65.2,76.4,66,109,.9,36.7-39,44.3-37,82,1.8,34.3,36.7,69.3,63,66s22-44.6,60-72c52.6-37.8,117.5,1.5,139-30,18.5-27.1-24.6-63.6-6-99s67.7-15.4,106-55c40.1-41.4,29.6-107.8,28-117C534.8,184.1,518.3,96.9,447,77.7Z" transform="translate(0 0)"/>
  <rect class="cls-2" x="151" y="326.7" width="12" height="4" rx="1.5"/>
  <rect class="cls-2" x="136" y="326.7" width="12" height="4" rx="1.5"/>
  <rect class="cls-3" x="106" y="326.7" width="12" height="4" rx="1.5"/>
  <rect class="cls-3" x="91" y="326.7" width="12" height="4" rx="1.5"/>
  <rect class="cls-3" x="76" y="326.7" width="12" height="4" rx="1.5"/>
  <rect class="cls-3" x="61" y="326.7" width="12" height="4" rx="1.5"/>
  <path class="cls-3" d="M56.5,326.7H50v-6.4a1.7,1.7,0,0,0-1.5-1.6h-1a1.7,1.7,0,0,0-1.5,1.6v8.9a1.5,1.5,0,0,0,1.5,1.5h9a1.5,1.5,0,0,0,1.5-1.5v-.9A1.7,1.7,0,0,0,56.5,326.7Z" transform="translate(0 0)"/>
  <rect class="cls-3" x="46" y="303.7" width="4" height="12" rx="1.5"/>
  <rect class="cls-3" x="46" y="288.7" width="4" height="12" rx="1.5"/>
  <rect class="cls-3" x="46" y="273.7" width="4" height="12" rx="1.5"/>
  <rect class="cls-3" y="219.7" width="97" height="48" rx="11"/>
  <g>
    <path class="cls-2" d="M40.2,256.7a12.1,12.1,0,0,1-5.9,1.3c-6.4,0-11.1-4.8-11.1-13.8s4.7-14.3,11.7-14.3a9.8,9.8,0,0,1,5.3,1.2l-.7,2.9a8.9,8.9,0,0,0-4.5-1.2c-5.3,0-8.8,4.1-8.8,11.3s3.2,11,8.6,11a10.1,10.1,0,0,0,4.8-1.2Z" transform="translate(0 0)"/>
    <path class="cls-2" d="M43.4,253.3a8.8,8.8,0,0,0,5.2,1.8,4.3,4.3,0,0,0,4.6-4h0v-.6c0-2.6-1.2-4.1-4.2-5.5s-5.9-3.9-5.9-7.7a7,7,0,0,1,6.6-7.4h.7a8.6,8.6,0,0,1,4.9,1.3l-.8,2.9a7.7,7.7,0,0,0-4.2-1.3,4,4,0,0,0-4.3,3.7h0v.4c0,2.5,1.4,3.8,4.5,5.3s5.7,4,5.7,8-2.6,7.8-7.8,7.8a9.1,9.1,0,0,1-5.7-1.7Z" transform="translate(0 0)"/>
    <path class="cls-2" d="M59.8,253.3a7.8,7.8,0,0,0,5.1,1.8,4.3,4.3,0,0,0,4.7-3.9h0v-.7c0-2.6-1.2-4.1-4.2-5.5s-5.9-3.9-5.9-7.7a7.3,7.3,0,0,1,7.2-7.4h0a8.7,8.7,0,0,1,5,1.3l-.8,2.9a8.3,8.3,0,0,0-4.3-1.3,3.9,3.9,0,0,0-4.2,3.6h0v.5c0,2.5,1.4,3.8,4.5,5.3s5.7,4,5.7,8a7.5,7.5,0,0,1-7.2,7.8h-.7a10.6,10.6,0,0,1-5.7-1.7Z" transform="translate(0 0)"/>
  </g>
  <rect class="cls-2" x="216" y="181.7" width="4" height="12" rx="1.5"/>
  <rect class="cls-2" x="216" y="196.7" width="4" height="12" rx="1.5"/>
  <rect class="cls-3" x="216" y="151.7" width="4" height="12" rx="1.5"/>
  <rect class="cls-3" x="216" y="136.7" width="4" height="12" rx="1.5"/>
  <rect class="cls-3" x="216" y="121.7" width="4" height="12" rx="1.5"/>
  <path class="cls-3" d="M218.5,106.7h-9a1.7,1.7,0,0,0-1.5,1.6v.9a1.5,1.5,0,0,0,1.5,1.5H216v6.5a1.5,1.5,0,0,0,1.5,1.5h1a1.5,1.5,0,0,0,1.5-1.5v-8.9A1.7,1.7,0,0,0,218.5,106.7Z" transform="translate(0 0)"/>
  <rect class="cls-3" x="193" y="106.7" width="12" height="4" rx="1.5"/>
  <rect class="cls-3" x="178" y="106.7" width="12" height="4" rx="1.5"/>
  <rect class="cls-3" x="163" y="106.7" width="12" height="4" rx="1.5"/>
  <rect class="cls-3" x="60" y="84.7" width="97" height="48" rx="11"/>
  <g>
    <path class="cls-2" d="M74.1,95.3v11.4H85V95.3h2.9v27.3H85V109.8H74.1v12.8H71.3V95.3Z" transform="translate(0 0)"/>
    <path class="cls-2" d="M97.2,98.3H90.4v-3h16.5v3h-6.8v24.3H97.2Z" transform="translate(0 0)"/>
    <path class="cls-2" d="M128.3,110.6c-.2-3.8-.4-8.3-.4-11.7h-.1c-.7,3.2-1.7,6.6-2.8,10.3l-3.9,13.3h-2.2l-3.6-13c-1.1-3.9-2-7.4-2.6-10.6h-.1c-.1,3.4-.2,7.9-.4,12l-.6,11.7h-2.8l1.6-27.3h3.7l3.8,13.2c.9,3.4,1.7,6.4,2.2,9.2h.1c.6-2.7,1.4-5.7,2.4-9.2l4-13.2h3.7l1.4,27.3h-2.9Z" transform="translate(0 0)"/>
    <path class="cls-2" d="M136.1,95.3H139v24.4h9.6v2.9H136.1Z" transform="translate(0 0)"/>
  </g>
  <rect class="cls-2" x="440" y="181.7" width="4" height="12" rx="1.5"/>
  <rect class="cls-2" x="440" y="196.7" width="4" height="12" rx="1.5"/>
  <rect class="cls-2" x="440" y="151.7" width="4" height="12" rx="1.5"/>
  <rect class="cls-2" x="440" y="166.7" width="4" height="12" rx="1.5"/>
  <rect class="cls-2" x="440" y="136.7" width="4" height="12" rx="1.5"/>
  <path class="cls-2" d="M450.5,121.7h-9a1.7,1.7,0,0,0-1.5,1.6v8.9a1.5,1.5,0,0,0,1.5,1.5h1a1.5,1.5,0,0,0,1.5-1.5v-6.5h6.5a1.5,1.5,0,0,0,1.5-1.5v-.9A1.7,1.7,0,0,0,450.5,121.7Z" transform="translate(0 0)"/>
  <rect class="cls-2" x="455" y="121.7" width="12" height="4" rx="1.5"/>
  <rect class="cls-2" x="470" y="121.7" width="12" height="4" rx="1.5"/>
  <rect class="cls-2" x="485" y="121.7" width="12" height="4" rx="1.5"/>
  <rect class="cls-3" x="515" y="121.7" width="12" height="4" rx="1.5"/>
  <rect class="cls-3" x="530" y="121.7" width="12" height="4" rx="1.5"/>
  <rect class="cls-3" x="545" y="121.7" width="12" height="4" rx="1.5"/>
  <rect class="cls-3" x="560" y="121.7" width="12" height="4" rx="1.5"/>
  <rect class="cls-3" x="575" y="121.7" width="12" height="4" rx="1.5"/>
  <rect class="cls-3" x="593" y="99.7" width="97" height="48" rx="11"/>
  <g>
    <path class="cls-2" d="M635.1,110.3H638v18.3c0,7.2-2.9,9.5-6.8,9.5a8.2,8.2,0,0,1-3.1-.7l.5-2.9a5,5,0,0,0,2.4.6c2.6,0,4.1-1.5,4.1-6.8Z" transform="translate(0 0)"/>
    <path class="cls-2" d="M642.4,133.3a8.8,8.8,0,0,0,5.2,1.8,4.4,4.4,0,0,0,4.7-4.1h0v-.5c0-2.6-1.2-4.1-4.2-5.5s-6-3.9-6-7.7a7,7,0,0,1,6.6-7.4h.7a8.6,8.6,0,0,1,4.9,1.3l-.8,2.9a7.7,7.7,0,0,0-4.2-1.3,3.9,3.9,0,0,0-4.2,3.6h0v.5c0,2.5,1.3,3.8,4.4,5.3s5.7,4,5.7,8-2.5,7.8-7.8,7.8a9.1,9.1,0,0,1-5.7-1.7Z" transform="translate(0 0)"/>
  </g>
  <rect class="cls-3" x="509" y="346.7" width="12" height="4" rx="1.5"/>
  <g>
    <rect class="cls-2" x="500" y="121.7" width="12" height="4" rx="1.5"/>
    <path class="cls-3" d="M510.5,125.7a1.5,1.5,0,0,0,1.5-1.5h0v-.9a1.7,1.7,0,0,0-1.5-1.6h-3.2c1,1.4,1.9,2.7,2.7,4Z" transform="translate(0 0)"/>
  </g>
  <g>
    <rect class="cls-2" x="216" y="166.7" width="4" height="12" rx="1.5"/>
    <path class="cls-3" d="M220,168.3a1.7,1.7,0,0,0-1.5-1.6h-1a1.7,1.7,0,0,0-1.5,1.6v6.3l4-.7Z" transform="translate(0 0)"/>
  </g>
  <g>
    <rect class="cls-2" x="121" y="326.7" width="12" height="4" rx="1.5"/>
    <path class="cls-3" d="M122.5,326.7a1.7,1.7,0,0,0-1.5,1.6v.9a1.5,1.5,0,0,0,1.5,1.5h7.1l-2.3-4Z" transform="translate(0 0)"/>
  </g>
  <rect class="cls-3" x="524" y="346.7" width="12" height="4" rx="1.5"/>
  <rect class="cls-3" x="554" y="346.7" width="12" height="4" rx="1.5"/>
  <rect class="cls-3" x="539" y="346.7" width="12" height="4" rx="1.5"/>
  <rect class="cls-3" x="569" y="346.7" width="12" height="4" rx="1.5"/>
  <rect class="cls-3" x="584" y="346.7" width="12" height="4" rx="1.5"/>
  <rect class="cls-3" x="599" y="346.7" width="12" height="4" rx="1.5"/>
  <path class="cls-3" d="M624.5,346.7h-9a1.7,1.7,0,0,0-1.5,1.6v.9a1.5,1.5,0,0,0,1.5,1.5H622v6.5a1.5,1.5,0,0,0,1.5,1.5h1a1.5,1.5,0,0,0,1.5-1.5v-8.9A1.7,1.7,0,0,0,624.5,346.7Z" transform="translate(0 0)"/>
  <rect class="cls-3" x="622" y="361.7" width="4" height="12" rx="1.5"/>
  <rect class="cls-3" x="575" y="379.7" width="97" height="48" rx="11"/>
  <g>
    <path class="cls-2" d="M598.1,390.7a26,26,0,0,1,5.6-.6c2.8,0,4.9.8,6.3,2.3a8.4,8.4,0,0,1,1.9,5.7,9.2,9.2,0,0,1-1.7,5.8,8.7,8.7,0,0,1-6.9,3,9,9,0,0,1-2.3-.2v10.9h-2.9Zm2.9,13.1a9.9,9.9,0,0,0,2.4.3c3.5,0,5.6-2.1,5.6-5.8s-2.1-5.4-5.3-5.4a12.4,12.4,0,0,0-2.7.3Z" transform="translate(0 0)"/>
    <path class="cls-2" d="M618.7,390.3v11.4h10.8V390.3h2.9v27.3h-2.9V404.8H618.7v12.8h-2.9V390.3Z" transform="translate(0 0)"/>
    <path class="cls-2" d="M637.4,390.7a26,26,0,0,1,5.6-.6c2.8,0,4.9.8,6.3,2.3a8.4,8.4,0,0,1,1.9,5.7,9.2,9.2,0,0,1-1.7,5.8,8.5,8.5,0,0,1-6.8,3,9.7,9.7,0,0,1-2.4-.2v10.9h-2.9Zm2.9,13.1a9.9,9.9,0,0,0,2.4.3c3.5,0,5.6-2.1,5.6-5.8s-2.1-5.4-5.2-5.4a13.3,13.3,0,0,0-2.8.3Z" transform="translate(0 0)"/>
  </g>
  <path class="cls-3" d="M441.2,562.1l.5-2.9a25.6,25.6,0,0,0,10.2-2.2l1.7,2.3a2.1,2.1,0,0,0,2.9.7h0c0-.1,0-.1.1-.1l4.6-3.2a2.2,2.2,0,0,0,.5-3.1h0l-1.7-2.3a27,27,0,0,0,5.6-8.8l2.9.5a2.2,2.2,0,0,0,2.5-1.8l1-5.4a2.3,2.3,0,0,0-1.8-2.6l-2.9-.5a25.6,25.6,0,0,0-2.2-10.2l2.4-1.6a2.2,2.2,0,0,0,.5-3.1h0l-3.2-4.5a2.1,2.1,0,0,0-2.9-.7h0c0,.1,0,.1-.1.1l-2.4,1.7a27,27,0,0,0-8.8-5.6l.5-2.9a2.2,2.2,0,0,0-1.8-2.5l-5.4-1a2.3,2.3,0,0,0-2.6,1.8l-.5,2.9a25.6,25.6,0,0,0-10.2,2.2L429,507a2.1,2.1,0,0,0-2.9-.7h-.2l-4.5,3.2a2.1,2.1,0,0,0-.7,2.9.1.1,0,0,1,.1.1h0l1.7,2.3a27,27,0,0,0-5.6,8.8l-2.9-.5a2.2,2.2,0,0,0-2.5,1.8l-1,5.5a2.2,2.2,0,0,0,1.8,2.5l2.9.5a25.6,25.6,0,0,0,2.2,10.2l-2.3,1.6a2.1,2.1,0,0,0-.7,2.9h.1l3.2,4.5a2.1,2.1,0,0,0,2.9.7.1.1,0,0,1,.1-.1h.1l2.3-1.7a24,24,0,0,0,8.8,5.6l-.5,2.9a2.2,2.2,0,0,0,1.8,2.5l5.5,1A2.2,2.2,0,0,0,441.2,562.1Zm-14.1-31.4a14.4,14.4,0,1,1,11.8,16.6h-.1A14.4,14.4,0,0,1,427.1,530.7Z" transform="translate(0 0)"/>
  <path class="cls-1" d="M320,34.6V31.1a30.9,30.9,0,0,0-58.2-14.7,23.3,23.3,0,0,0-5.3-.7,20.5,20.5,0,0,0-20.3,18.2,30.9,30.9,0,1,0,1.7,61.8h75A31,31,0,0,0,320,34.6Z" transform="translate(0 0)"/>
  <g>
    <path class="cls-2" d="M239.6,61.2l24.9-15.7v4.6l-21,12.8h0l21,12.9v4.5L239.6,64.7Z" transform="translate(0 0)"/>
    <path class="cls-2" d="M268,83l15-47.5h3.6L271.6,83Z" transform="translate(0 0)"/>
    <path class="cls-2" d="M314.9,64.8,290,80.4V75.9L311.2,63h0L290,50.1V45.5l24.9,15.6Z" transform="translate(0 0)"/>
  </g>
  <g id="Слой_1-2" data-name="Слой 1-2">
    <path class="cls-4" d="M485.1,419.7H186.9a17.9,17.9,0,0,1-18-17.8h0V232.7a18.2,18.2,0,0,1,18-18H489.1a14,14,0,0,1,14,14v173a17.9,17.9,0,0,1-17.8,18h-.2Z" transform="translate(0 0)"/>
    <rect class="cls-5" x="181" y="227.7" width="309.7" height="184.61"/>
    <path class="cls-1" d="M523.8,420.5H148.2A12.2,12.2,0,0,1,136,408.3v-1.6a3,3,0,0,1,2.8-2.8H533.2a3,3,0,0,1,2.8,2.8v1.6A12.2,12.2,0,0,1,523.8,420.5Z" transform="translate(0 0)"/>
    <path class="cls-6" d="M136,409.2c.5,6.3,5.1,11.3,10.9,11.3H525.1c5.8,0,10.4-5,10.9-11.3Z" transform="translate(0 0)"/>
    <rect class="cls-7" x="181" y="227.7" width="45.5" height="176"/>
  </g>
  <path class="cls-6" d="M195.2,237.2h13.6a2,2,0,0,1,2,2h0a2,2,0,0,1-2,2H195.2a2,2,0,0,1-2-2h0A2,2,0,0,1,195.2,237.2Z" transform="translate(0 0)"/>
  <path class="cls-6" d="M201.2,245.2h13.6a2,2,0,0,1,2,2h0a2,2,0,0,1-2,2H201.2a2,2,0,0,1-2-2h0A2,2,0,0,1,201.2,245.2Z" transform="translate(0 0)"/>
  <path class="cls-6" d="M201.2,253.2h13.6a2,2,0,0,1,2,2h0a2,2,0,0,1-2,2H201.2a2,2,0,0,1-2-2h0A2,2,0,0,1,201.2,253.2Z" transform="translate(0 0)"/>
  <path class="cls-6" d="M201.2,261.2h13.6a2,2,0,0,1,2,2h0a2,2,0,0,1-2,2H201.2a2,2,0,0,1-2-2h0A2,2,0,0,1,201.2,261.2Z" transform="translate(0 0)"/>
  <path class="cls-6" d="M201.2,269.2h13.6a2,2,0,0,1,2,2h0a2,2,0,0,1-2,2H201.2a2,2,0,0,1-2-2h0A2,2,0,0,1,201.2,269.2Z" transform="translate(0 0)"/>
  <path class="cls-6" d="M201.2,277.2h13.6a2,2,0,0,1,2,2h0a2,2,0,0,1-2,2H201.2a2,2,0,0,1-2-2h0A2,2,0,0,1,201.2,277.2Z" transform="translate(0 0)"/>
  <path class="cls-6" d="M201.2,285.2h13.6a2,2,0,0,1,2,2h0a2,2,0,0,1-2,2H201.2a2,2,0,0,1-2-2h0A2,2,0,0,1,201.2,285.2Z" transform="translate(0 0)"/>
  <path class="cls-6" d="M201.2,293.2h13.6a2,2,0,0,1,2,2h0a2,2,0,0,1-2,2H201.2a2,2,0,0,1-2-2h0A2,2,0,0,1,201.2,293.2Z" transform="translate(0 0)"/>
  <path class="cls-6" d="M201.2,301.2h13.6a2,2,0,0,1,2,2h0a2,2,0,0,1-2,2H201.2a2,2,0,0,1-2-2h0A2,2,0,0,1,201.2,301.2Z" transform="translate(0 0)"/>
  <path class="cls-6" d="M201.2,309.2h13.6a2,2,0,0,1,2,2h0a2,2,0,0,1-2,2H201.2a2,2,0,0,1-2-2h0A2,2,0,0,1,201.2,309.2Z" transform="translate(0 0)"/>
  <path class="cls-6" d="M201.2,317.2h13.6a2,2,0,0,1,2,2h0a2,2,0,0,1-2,2H201.2a2,2,0,0,1-2-2h0A2,2,0,0,1,201.2,317.2Z" transform="translate(0 0)"/>
  <path class="cls-6" d="M201.2,325.2h13.6a2,2,0,0,1,2,2h0a2,2,0,0,1-2,2H201.2a2,2,0,0,1-2-2h0A2,2,0,0,1,201.2,325.2Z" transform="translate(0 0)"/>
  <path class="cls-8" d="M235.8,237.2H238a2,2,0,0,1,2,2h0a2,2,0,0,1-2,2h-2.2a2,2,0,0,1-2-2h0A2,2,0,0,1,235.8,237.2Z" transform="translate(0 0)"/>
  <path class="cls-8" d="M235.8,245.2H238a2,2,0,0,1,2,2h0a2,2,0,0,1-2,2h-2.2a2,2,0,0,1-2-2h0A2,2,0,0,1,235.8,245.2Z" transform="translate(0 0)"/>
  <path class="cls-9" d="M247.7,285.2h19.7a2,2,0,0,1,2,2h0a2,2,0,0,1-2,2H247.7a2,2,0,0,1-2-2h0A2,2,0,0,1,247.7,285.2Z" transform="translate(0 0)"/>
  <path class="cls-8" d="M235.8,253.2H238a2,2,0,0,1,2,2h0a2,2,0,0,1-2,2h-2.2a2,2,0,0,1-2-2h0A2,2,0,0,1,235.8,253.2Z" transform="translate(0 0)"/>
  <path class="cls-8" d="M235.8,261.2H238a2,2,0,0,1,2,2h0a2,2,0,0,1-2,2h-2.2a2,2,0,0,1-2-2h0A2,2,0,0,1,235.8,261.2Z" transform="translate(0 0)"/>
  <path class="cls-8" d="M235.8,269.2H238a2,2,0,0,1,2,2h0a2,2,0,0,1-2,2h-2.2a2,2,0,0,1-2-2h0A2,2,0,0,1,235.8,269.2Z" transform="translate(0 0)"/>
  <path class="cls-8" d="M235.8,277.2H238a2,2,0,0,1,2,2h0a2,2,0,0,1-2,2h-2.2a2,2,0,0,1-2-2h0A2,2,0,0,1,235.8,277.2Z" transform="translate(0 0)"/>
  <path class="cls-8" d="M235.8,285.2H238a2,2,0,0,1,2,2h0a2,2,0,0,1-2,2h-2.2a2,2,0,0,1-2-2h0A2,2,0,0,1,235.8,285.2Z" transform="translate(0 0)"/>
  <path class="cls-8" d="M235.8,293.2H238a2,2,0,0,1,2,2h0a2,2,0,0,1-2,2h-2.2a2,2,0,0,1-2-2h0A2,2,0,0,1,235.8,293.2Z" transform="translate(0 0)"/>
  <path class="cls-8" d="M235.8,301.2H238a2,2,0,0,1,2,2h0a2,2,0,0,1-2,2h-2.2a2,2,0,0,1-2-2h0A2,2,0,0,1,235.8,301.2Z" transform="translate(0 0)"/>
  <path class="cls-8" d="M235.8,309.2H238a2,2,0,0,1,2,2h0a2,2,0,0,1-2,2h-2.2a2,2,0,0,1-2-2h0A2,2,0,0,1,235.8,309.2Z" transform="translate(0 0)"/>
  <path class="cls-8" d="M235.8,317.2H238a2,2,0,0,1,2,2h0a2,2,0,0,1-2,2h-2.2a2,2,0,0,1-2-2h0A2,2,0,0,1,235.8,317.2Z" transform="translate(0 0)"/>
  <path class="cls-8" d="M235.8,325.2H238a2,2,0,0,1,2,2h0a2,2,0,0,1-2,2h-2.2a2,2,0,0,1-2-2h0A2,2,0,0,1,235.8,325.2Z" transform="translate(0 0)"/>
  <path class="cls-8" d="M235.8,333.2H238a2,2,0,0,1,2,2h0a2,2,0,0,1-2,2h-2.2a2,2,0,0,1-2-2h0A2,2,0,0,1,235.8,333.2Z" transform="translate(0 0)"/>
  <path class="cls-8" d="M235.8,341.2H238a2,2,0,0,1,2,2h0a2,2,0,0,1-2,2h-2.2a2,2,0,0,1-2-2h0A2,2,0,0,1,235.8,341.2Z" transform="translate(0 0)"/>
  <path class="cls-8" d="M235.8,349.2H238a2,2,0,0,1,2,2h0a2,2,0,0,1-2,2h-2.2a2,2,0,0,1-2-2h0A2,2,0,0,1,235.8,349.2Z" transform="translate(0 0)"/>
  <path class="cls-8" d="M235.8,357.2H238a2,2,0,0,1,2,2h0a2,2,0,0,1-2,2h-2.2a2,2,0,0,1-2-2h0A2,2,0,0,1,235.8,357.2Z" transform="translate(0 0)"/>
  <path class="cls-8" d="M235.8,365.2H238a2,2,0,0,1,2,2h0a2,2,0,0,1-2,2h-2.2a2,2,0,0,1-2-2h0A2,2,0,0,1,235.8,365.2Z" transform="translate(0 0)"/>
  <path class="cls-9" d="M266.6,269.2H311a2,2,0,0,1,2,2h0a2,2,0,0,1-2,2H266.6a2,2,0,0,1-2-2h0A2,2,0,0,1,266.6,269.2Z" transform="translate(0 0)"/>
  <path class="cls-9" d="M266.6,277.2h8a2,2,0,0,1,2,2h0a2,2,0,0,1-2,2h-8a2,2,0,0,1-2-2h0A2,2,0,0,1,266.6,277.2Z" transform="translate(0 0)"/>
  <path class="cls-8" d="M235.8,373.2H238a2,2,0,0,1,2,2h0a2,2,0,0,1-2,2h-2.2a2,2,0,0,1-2-2h0A2,2,0,0,1,235.8,373.2Z" transform="translate(0 0)"/>
  <path class="cls-8" d="M235.8,381.2H238a2,2,0,0,1,2,2h0a2,2,0,0,1-2,2h-2.2a2,2,0,0,1-2-2h0A2,2,0,0,1,235.8,381.2Z" transform="translate(0 0)"/>
  <path class="cls-8" d="M235.8,389.2H238a2,2,0,0,1,2,2h0a2,2,0,0,1-2,2h-2.2a2,2,0,0,1-2-2h0A2,2,0,0,1,235.8,389.2Z" transform="translate(0 0)"/>
  <path class="cls-9" d="M247.7,237.2h19.7a2,2,0,0,1,2,2h0a2,2,0,0,1-2,2H247.7a2,2,0,0,1-2-2h0A2,2,0,0,1,247.7,237.2Z" transform="translate(0 0)"/>
  <path class="cls-8" d="M266.6,245.2h5a2,2,0,0,1,2,2h0a2,2,0,0,1-2,2h-5a2,2,0,0,1-2-2h0A2,2,0,0,1,266.6,245.2Z" transform="translate(0 0)"/>
  <path class="cls-8" d="M266.6,253.2h5a2,2,0,0,1,2,2h0a2,2,0,0,1-2,2h-5a2,2,0,0,1-2-2h0A2,2,0,0,1,266.6,253.2Z" transform="translate(0 0)"/>
  <path class="cls-9" d="M266.6,253.2h10.9a2,2,0,0,1,2,2h0a2,2,0,0,1-2,2H266.6a2,2,0,0,1-2-2h0A2,2,0,0,1,266.6,253.2Z" transform="translate(0 0)"/>
  <path class="cls-9" d="M266.6,261.2h18.2a2,2,0,0,1,2,2h0a2,2,0,0,1-2,2H266.6a2,2,0,0,1-2-2h0A2,2,0,0,1,266.6,261.2Z" transform="translate(0 0)"/>
  <path class="cls-9" d="M247.7,285.2h10.9a2,2,0,0,1,2,2h0a2,2,0,0,1-2,2H247.7a2,2,0,0,1-2-2h0A2,2,0,0,1,247.7,285.2Z" transform="translate(0 0)"/>
  <path class="cls-8" d="M247.7,301.2h5a2,2,0,0,1,2,2h0a2,2,0,0,1-2,2h-5a2,2,0,0,1-2-2h0A2,2,0,0,1,247.7,301.2Z" transform="translate(0 0)"/>
  <path class="cls-9" d="M284.1,317.2h12.4a2,2,0,0,1,2,2h0a2,2,0,0,1-2,2H284.1a2,2,0,0,1-2-2h0A2,2,0,0,1,284.1,317.2Z" transform="translate(0 0)"/>
  <path class="cls-9" d="M301.6,325.2h21.1a2,2,0,0,1,2,2h0a2,2,0,0,1-2,2H301.6a2,2,0,0,1-2-2h0A2,2,0,0,1,301.6,325.2Z" transform="translate(0 0)"/>
  <path class="cls-9" d="M247.8,389.2h25.4a2,2,0,0,1,2,2h0a2,2,0,0,1-2,2H247.8a2,2,0,0,1-2-2h0A2,2,0,0,1,247.8,389.2Z" transform="translate(0 0)"/>
  <path class="cls-8" d="M391.2,261.2h28.4a2,2,0,0,1,2,2h0a2,2,0,0,1-2,2H391.2a2,2,0,0,1-2-2h0A2,2,0,0,1,391.2,261.2Z" transform="translate(0 0)"/>
  <path class="cls-1" d="M278.4,237.2h55.9a2,2,0,0,1,2,2h0a2,2,0,0,1-2,2H278.4a2,2,0,0,1-2-2h0A2,2,0,0,1,278.4,237.2Z" transform="translate(0 0)"/>
  <path class="cls-9" d="M266.6,245.2h25.5a2,2,0,0,1,2,2h0a2,2,0,0,1-2,2H266.6a2,2,0,0,1-2-2h0A2,2,0,0,1,266.6,245.2Z" transform="translate(0 0)"/>
  <path class="cls-1" d="M302.2,245.2h28.4a2,2,0,0,1,2,2h0a2,2,0,0,1-2,2H302.2a2,2,0,0,1-2-2h0A2,2,0,0,1,302.2,245.2Z" transform="translate(0 0)"/>
  <path class="cls-9" d="M340.1,245.2h25.5a2,2,0,0,1,2,2h0a2,2,0,0,1-2,2H340.1a2,2,0,0,1-2-2h0A2,2,0,0,1,340.1,245.2Z" transform="translate(0 0)"/>
  <path class="cls-8" d="M286.8,253.2h54.8a2,2,0,0,1,2,2h0a2,2,0,0,1-2,2H286.8a2,2,0,0,1-2-2h0A2,2,0,0,1,286.8,253.2Z" transform="translate(0 0)"/>
  <path class="cls-1" d="M349.9,253.2h80.4a2,2,0,0,1,2,2h0a2,2,0,0,1-2,2H349.9a2,2,0,0,1-2-2h0A2,2,0,0,1,349.9,253.2Z" transform="translate(0 0)"/>
  <path class="cls-1" d="M294.3,261.2h87.6a2,2,0,0,1,2,2h0a2,2,0,0,1-2,2H294.3a2,2,0,0,1-2-2h0A2,2,0,0,1,294.3,261.2Z" transform="translate(0 0)"/>
  <path class="cls-9" d="M428.1,261.2h18.2a2,2,0,0,1,2,2h0a2,2,0,0,1-2,2H428.1a2,2,0,0,1-2-2h0A2,2,0,0,1,428.1,261.2Z" transform="translate(0 0)"/>
  <path class="cls-1" d="M319.7,269.2h87.6a2,2,0,0,1,2,2h0a2,2,0,0,1-2,2H319.7a2,2,0,0,1-2-2h0A2,2,0,0,1,319.7,269.2Z" transform="translate(0 0)"/>
  <path class="cls-9" d="M415.9,269.2h44.4a2,2,0,0,1,2,2h0a2,2,0,0,1-2,2H415.9a2,2,0,0,1-2-2h0A2,2,0,0,1,415.9,269.2Z" transform="translate(0 0)"/>
  <path class="cls-1" d="M283.6,277.2H312a2,2,0,0,1,2,2h0a2,2,0,0,1-2,2H283.6a2,2,0,0,1-2-2h0A2,2,0,0,1,283.6,277.2Z" transform="translate(0 0)"/>
  <path class="cls-9" d="M320.6,277.2h8a2,2,0,0,1,2,2h0a2,2,0,0,1-2,2h-8a2,2,0,0,1-2-2h0A2,2,0,0,1,320.6,277.2Z" transform="translate(0 0)"/>
  <path class="cls-9" d="M247.8,301.2h25.4a2,2,0,0,1,2,2h0a2,2,0,0,1-2,2H247.8a2,2,0,0,1-2-2h0A2,2,0,0,1,247.8,301.2Z" transform="translate(0 0)"/>
  <path class="cls-9" d="M266.6,309.2h8a2,2,0,0,1,2,2h0a2,2,0,0,1-2,2h-8a2,2,0,0,1-2-2h0A2,2,0,0,1,266.6,309.2Z" transform="translate(0 0)"/>
  <path class="cls-9" d="M266.6,365.2h8a2,2,0,0,1,2,2h0a2,2,0,0,1-2,2h-8a2,2,0,0,1-2-2h0A2,2,0,0,1,266.6,365.2Z" transform="translate(0 0)"/>
  <path class="cls-1" d="M282,301.2h28.4a2,2,0,0,1,2,2h0a2,2,0,0,1-2,2H282a2,2,0,0,1-2-2h0A2,2,0,0,1,282,301.2Z" transform="translate(0 0)"/>
  <path class="cls-1" d="M283.5,309.2h20.3a2,2,0,0,1,2,2h0a2,2,0,0,1-2,2H283.5a2,2,0,0,1-2-2h0A2,2,0,0,1,283.5,309.2Z" transform="translate(0 0)"/>
  <path class="cls-8" d="M312.9,309.2h40.4a2,2,0,0,1,2,2h0a2,2,0,0,1-2,2H312.9a2,2,0,0,1-2-2h0A2,2,0,0,1,312.9,309.2Z" transform="translate(0 0)"/>
  <path class="cls-1" d="M305.2,317.2h32a2,2,0,0,1,2,2h0a2,2,0,0,1-2,2h-32a2,2,0,0,1-2-2h0A2,2,0,0,1,305.2,317.2Z" transform="translate(0 0)"/>
  <path class="cls-9" d="M284.1,333.2h12.4a2,2,0,0,1,2,2h0a2,2,0,0,1-2,2H284.1a2,2,0,0,1-2-2h0A2,2,0,0,1,284.1,333.2Z" transform="translate(0 0)"/>
  <path class="cls-1" d="M344.8,317.2h15.7a2,2,0,0,1,2,2h0a2,2,0,0,1-2,2H344.8a2,2,0,0,1-2-2h0A2,2,0,0,1,344.8,317.2Z" transform="translate(0 0)"/>
  <path class="cls-1" d="M331.3,325.2h62.6a2,2,0,0,1,2,2h0a2,2,0,0,1-2,2H331.3a2,2,0,0,1-2-2h0A2,2,0,0,1,331.3,325.2Z" transform="translate(0 0)"/>
  <path class="cls-9" d="M402.5,325.2h21.1a2,2,0,0,1,2,2h0a2,2,0,0,1-2,2H402.5a2,2,0,0,1-2-2h0A2,2,0,0,1,402.5,325.2Z" transform="translate(0 0)"/>
  <path class="cls-9" d="M283.7,341.3h12.4a2,2,0,0,1,2,2h0a2,2,0,0,1-2,2H283.7a2,2,0,0,1-2-2h0A2,2,0,0,1,283.7,341.3Z" transform="translate(0 0)"/>
  <path class="cls-9" d="M301.2,349.3h21.1a2,2,0,0,1,2,2h0a2,2,0,0,1-2,2H301.2a2,2,0,0,1-2-2h0A2,2,0,0,1,301.2,349.3Z" transform="translate(0 0)"/>
  <path class="cls-1" d="M304.8,341.3h32a2,2,0,0,1,2,2h0a2,2,0,0,1-2,2h-32a2,2,0,0,1-2-2h0A2,2,0,0,1,304.8,341.3Z" transform="translate(0 0)"/>
  <path class="cls-9" d="M283.7,357.3h12.4a2,2,0,0,1,2,2h0a2,2,0,0,1-2,2H283.7a2,2,0,0,1-2-2h0A2,2,0,0,1,283.7,357.3Z" transform="translate(0 0)"/>
  <path class="cls-1" d="M386.6,349.2h47a2,2,0,0,1,2,2h0a2,2,0,0,1-2,2h-47a2,2,0,0,1-2-2h0A2,2,0,0,1,386.6,349.2Z" transform="translate(0 0)"/>
  <path class="cls-8" d="M344.4,341.3h15.7a2,2,0,0,1,2,2h0a2,2,0,0,1-2,2H344.4a2,2,0,0,1-2-2h0A2,2,0,0,1,344.4,341.3Z" transform="translate(0 0)"/>
  <path class="cls-1" d="M330.9,349.3h47a2,2,0,0,1,2,2h0a2,2,0,0,1-2,2h-47a2,2,0,0,1-2-2h0A2,2,0,0,1,330.9,349.3Z" transform="translate(0 0)"/>
  <path class="cls-9" d="M248,373.3h28.1a2,2,0,0,1,2,2h0a2,2,0,0,1-2,2H248a2,2,0,0,1-2-2h0A2,2,0,0,1,248,373.3Z" transform="translate(0 0)"/>
  <path class="cls-1" d="M340.1,373.2h21.4a2,2,0,0,1,2,2h0a2,2,0,0,1-2,2H340.1a2,2,0,0,1-2-2h0A2,2,0,0,1,340.1,373.2Z" transform="translate(0 0)"/>
  <path class="cls-8" d="M284.8,373.3h47a2,2,0,0,1,2,2h0a2,2,0,0,1-2,2h-47a2,2,0,0,1-2-2h0A2,2,0,0,1,284.8,373.3Z" transform="translate(0 0)"/>
  <path class="cls-9" d="M369.6,373.3h29.1a2,2,0,0,1,2,2h0a2,2,0,0,1-2,2H369.6a2,2,0,0,1-2-2h0A2,2,0,0,1,369.6,373.3Z" transform="translate(0 0)"/>
  <path class="cls-9" d="M247.9,381.2h8a2,2,0,0,1,2,2h0a2,2,0,0,1-2,2h-8a2,2,0,0,1-2-2h0A2,2,0,0,1,247.9,381.2Z" transform="translate(0 0)"/>
  <path class="cls-1" d="M265.7,381.2h28.4a2,2,0,0,1,2,2h0a2,2,0,0,1-2,2H265.7a2,2,0,0,1-2-2h0A2,2,0,0,1,265.7,381.2Z" transform="translate(0 0)"/>
  <path class="cls-9" d="M302.8,381.2h8a2,2,0,0,1,2,2h0a2,2,0,0,1-2,2h-8a2,2,0,0,1-2-2h0A2,2,0,0,1,302.8,381.2Z" transform="translate(0 0)"/>
  <path class="cls-9" d="M441.8,349.2h21.1a2,2,0,0,1,2,2h0a2,2,0,0,1-2,2H441.8a2,2,0,0,1-2-2h0A2,2,0,0,1,441.8,349.2Z" transform="translate(0 0)"/>
  <rect class="cls-10" x="181" y="227.7" width="309.7" height="6"/>
  <path class="cls-9" d="M486.6,511.2l-.5-3.2a25.6,25.6,0,0,0,9.7-5.9l2.6,1.7a2.4,2.4,0,0,0,3.3-.3v-.2l3.6-4.9a2.5,2.5,0,0,0-.6-3.4h0l-2.6-1.8a32.7,32.7,0,0,0,2.6-11.1l3.1-.6a2.5,2.5,0,0,0,2-2.8l-1-5.9a2.4,2.4,0,0,0-2.7-2H506l-3.1.5a29.1,29.1,0,0,0-6-9.8l1.9-2.5a2.5,2.5,0,0,0-.6-3.4h0l-5-3.5a2.3,2.3,0,0,0-3.2.4c-.1,0-.1,0-.1.1l-1.9,2.6a28.6,28.6,0,0,0-11.1-2.6l-.6-3.2a2.4,2.4,0,0,0-2.7-1.9l-6,.9a2.5,2.5,0,0,0-2,2.8l.5,3.2a29.1,29.1,0,0,0-9.8,6l-2.5-1.8a2.3,2.3,0,0,0-3.2.4.1.1,0,0,0-.1.1h-.1l-3.5,5a2.4,2.4,0,0,0,.5,3.4h0l2.6,1.8a30.5,30.5,0,0,0-2.6,11.1l-3.2.5a2.5,2.5,0,0,0-1.9,2.8l1,6.1a2.3,2.3,0,0,0,2.6,1.9h.1l3.2-.5a28.7,28.7,0,0,0,6,9.7l-1.8,2.5a2.4,2.4,0,0,0,.5,3.4h0l5,3.5a2.4,2.4,0,0,0,3.4-.5h0l1.8-2.6a26.8,26.8,0,0,0,11.1,2.5l.6,3.2a2.4,2.4,0,0,0,2.7,2l6.1-1A2.4,2.4,0,0,0,486.6,511.2Zm-26-27.4a15.8,15.8,0,0,1,31.2-5.3,16,16,0,0,1-13,18.3h0A15.9,15.9,0,0,1,460.6,483.8Z" transform="translate(0 0)"/>
</svg>
