<svg xmlns="http://www.w3.org/2000/svg" viewBox="0 0 1802.46881 1698.13698">
  <defs>
    <style>
      .cls-1 {
        fill: #e6e6e6;
      }

      .cls-2 {
        opacity: 0.15;
      }

      .cls-3 {
        fill: #404040;
      }

      .cls-4, .cls-5 {
        fill: #b57bf2;
      }

      .cls-15, .cls-17, .cls-4 {
        stroke: #404040;
      }

      .cls-10, .cls-11, .cls-15, .cls-17, .cls-4 {
        stroke-miterlimit: 10;
        stroke-width: 15px;
      }

      .cls-6, .cls-7 {
        opacity: 0.2;
      }

      .cls-8 {
        fill: #6f8957;
      }

      .cls-16, .cls-9 {
        opacity: 0.1;
      }

      .cls-10, .cls-11, .cls-17, .cls-21 {
        fill: none;
      }

      .cls-10, .cls-11 {
        stroke: #000;
        stroke-linecap: round;
      }

      .cls-11 {
        opacity: 0.3;
      }

      .cls-12 {
        fill: #a6bd52;
      }

      .cls-13 {
        fill: #fcfcfc;
      }

      .cls-14 {
        fill: #bd002e;
      }

      .cls-15 {
        fill: #c34134;
      }

      .cls-18 {
        fill: #ffcf8d;
      }

      .cls-19 {
        fill: #8c6239;
      }

      .cls-20 {
        fill: #7b00df;
      }

      .cls-22 {
        fill: #6f8941;
      }

      .cls-23 {
        fill: #f2f2f2;
      }

      .cls-24 {
        fill: #a67c52;
      }

      .cls-25 {
        fill: #6f89a5;
      }

      .cls-26 {
        font-size: 35px;
        font-family: MyriadPro-Regular, Myriad Pro;
      }

      .cls-26, .cls-28 {
        fill: #fafafa;
      }

      .cls-27 {
        letter-spacing: -0.004em;
      }
    </style>
  </defs>
  <g id="Слой_2" data-name="Слой 2">
    <path class="cls-1" d="M1539.89435,472.15746h92.07446a170.5,170.5,0,0,0,0-341H1038.64069v.19147H800.40674v.37237H646.37567a170.5,170.5,0,0,0-170.5,170.5c0,3.53858.12091,7.0484.33338,10.53351A170.51,170.51,0,0,1,318.00543,472.84044h-55.11c-1.16321-.03576-2.32953-.059-3.50147-.059a112.78251,112.78251,0,0,0-.21271,225.56482v.4942h52.6366v.32849c1.56622-.13537,3.14117-.23974,4.72021-.32849h16.86493a149.86792,149.86792,0,0,1,8.29322,298.54944H170.81781v.37647c-.1062-.00025-.21155-.00416-.31781-.00416a170.5,170.5,0,0,0,0,341c3.74713,0,7.4624-.13427,11.14941-.37231h110.8144c60.36517.71533,109.15966,45.68677,110.02972,101.37231-.29272,3.29395-.451,6.62671-.451,9.99683a111.50855,111.50855,0,0,0,111.50855,111.50855c.08935,0,.17791-.00318.26721-.00342v.0039h721.77514v-.19152h238.234v-.2439h100.73731a111.50867,111.50867,0,0,0,0-223.01733h-94.38965a170.49273,170.49273,0,0,1,3.22217-340.61695l49.65454-.12231v-.24976a149.868,149.868,0,0,0,4.45727-299.66882h13.30628a105.8686,105.8686,0,0,1-32.12415-6.21912c-39.20788-14.25647-76.89807-55.21356-76.89807-106.951A112.8,112.8,0,0,1,1539.89435,472.15746Z"/>
    <g class="cls-2">
      <circle cx="629.70249" cy="281.10637" r="72"/>
    </g>
    <g class="cls-2">
      <circle cx="1308.20249" cy="456.60637" r="45.5"/>
    </g>
    <g class="cls-2">
      <circle cx="1085.70249" cy="1286.10637" r="36"/>
    </g>
    <g class="cls-2">
      <circle cx="575.81951" cy="1353.03191" r="53.88298"/>
    </g>
    <g class="cls-2">
      <circle cx="1438.20249" cy="1441.60637" r="24.5"/>
    </g>
    <g class="cls-2">
      <circle cx="274.70249" cy="1145.10637" r="36"/>
    </g>
    <g class="cls-2">
      <circle cx="1569.7876" cy="811.10637" r="52.91489"/>
    </g>
    <path class="cls-3" d="M1173.62715,188.64736h-3.67289v-3.955a8.586,8.586,0,0,0-8.586-8.586h0a8.586,8.586,0,0,0-8.586,8.586v3.955h-3.95914a8.586,8.586,0,0,0-8.586,8.586v0a8.586,8.586,0,0,0,8.586,8.586h3.95914v3.67706a8.58605,8.58605,0,0,0,8.586,8.586h0a8.586,8.586,0,0,0,8.586-8.586v-3.67706h3.67289a8.586,8.586,0,0,0,8.586-8.586v0A8.586,8.586,0,0,0,1173.62715,188.64736Z"/>
    <path class="cls-3" d="M1604.27652,255.964h-2.59416v-2.79339a6.06428,6.06428,0,0,0-6.06429-6.06428h0a6.06427,6.06427,0,0,0-6.06427,6.06428V255.964h-2.79633a6.06428,6.06428,0,0,0-6.06428,6.06428v0a6.06427,6.06427,0,0,0,6.06428,6.06427h2.79633v2.5971a6.0643,6.0643,0,0,0,6.06429,6.06429h0a6.06429,6.06429,0,0,0,6.06428-6.06429v-2.5971h2.59416a6.06427,6.06427,0,0,0,6.06428-6.06427v0A6.06428,6.06428,0,0,0,1604.27652,255.964Z"/>
    <path class="cls-3" d="M354.72332,571.35674H351.31v-3.67545a7.97916,7.97916,0,0,0-7.97919-7.97916h0a7.97916,7.97916,0,0,0-7.97917,7.97916v3.67545h-3.67932a7.97916,7.97916,0,0,0-7.97916,7.97917v0a7.97916,7.97916,0,0,0,7.97916,7.97916h3.67932v3.41718a7.9792,7.9792,0,0,0,7.97918,7.97918h0a7.97918,7.97918,0,0,0,7.97917-7.97918v-3.41718h3.4133a7.97916,7.97916,0,0,0,7.97917-7.97916v0A7.97916,7.97916,0,0,0,354.72332,571.35674Z"/>
    <path class="cls-3" d="M875.08326,1453.46783h-3.6729v-3.955a8.586,8.586,0,0,0-8.586-8.586h0a8.586,8.586,0,0,0-8.586,8.586v3.955h-3.95914a8.586,8.586,0,0,0-8.586,8.586v0a8.586,8.586,0,0,0,8.586,8.586h3.95914v3.67706a8.586,8.586,0,0,0,8.586,8.586h0a8.586,8.586,0,0,0,8.586-8.586v-3.67706h3.6729a8.586,8.586,0,0,0,8.586-8.586v0A8.586,8.586,0,0,0,875.08326,1453.46783Z"/>
    <path class="cls-3" d="M1290.395,1301.00854h-2.60719v-2.80742a6.09475,6.09475,0,0,0-6.09476-6.09475h0a6.09474,6.09474,0,0,0-6.09474,6.09475v2.80742h-2.81038a6.09474,6.09474,0,0,0-6.09474,6.09474v0a6.09474,6.09474,0,0,0,6.09474,6.09474h2.81038v2.61014a6.09477,6.09477,0,0,0,6.09475,6.09476h0a6.09475,6.09475,0,0,0,6.09474-6.09476V1313.198h2.60719a6.09474,6.09474,0,0,0,6.09474-6.09474v0A6.09474,6.09474,0,0,0,1290.395,1301.00854Z"/>
    <path class="cls-3" d="M145.2006,1059.91955h-2.58113v-2.77936a6.03382,6.03382,0,0,0-6.03382-6.03382h0a6.03381,6.03381,0,0,0-6.03381,6.03382v2.77936h-2.78228a6.03381,6.03381,0,0,0-6.03382,6.03381v0a6.03382,6.03382,0,0,0,6.03382,6.03382h2.78228v2.584a6.03384,6.03384,0,0,0,6.03383,6.03383h0a6.03382,6.03382,0,0,0,6.03381-6.03383v-2.584h2.58113a6.03382,6.03382,0,0,0,6.03382-6.03382v0A6.03381,6.03381,0,0,0,145.2006,1059.91955Z"/>
    <path class="cls-3" d="M206.89177,308.17h-3.6729v-3.955a8.586,8.586,0,0,0-8.586-8.586h0a8.586,8.586,0,0,0-8.586,8.586v3.955h-3.95914a8.586,8.586,0,0,0-8.586,8.586v0a8.586,8.586,0,0,0,8.586,8.586h3.95914V329.019a8.586,8.586,0,0,0,8.586,8.586h0a8.586,8.586,0,0,0,8.586-8.586V325.342h3.6729a8.586,8.586,0,0,0,8.586-8.586v0A8.586,8.586,0,0,0,206.89177,308.17Z"/>
    <path class="cls-3" d="M1712.89177,668.57421h-3.6729v-3.955a8.586,8.586,0,0,0-8.586-8.586h0a8.586,8.586,0,0,0-8.586,8.586v3.955h-3.95914a8.586,8.586,0,0,0-8.586,8.586v0a8.586,8.586,0,0,0,8.586,8.586h3.95914v3.67706a8.586,8.586,0,0,0,8.586,8.586h0a8.586,8.586,0,0,0,8.586-8.586v-3.67706h3.6729a8.586,8.586,0,0,0,8.586-8.586v0A8.586,8.586,0,0,0,1712.89177,668.57421Z"/>
    <path class="cls-3" d="M1490.59422,1677.7797h-2.54017v-2.73526a5.93807,5.93807,0,0,0-5.93809-5.93807h0a5.93806,5.93806,0,0,0-5.93807,5.93807v2.73526h-2.73813a5.93806,5.93806,0,0,0-5.93807,5.93807v0a5.93806,5.93806,0,0,0,5.93807,5.93807h2.73813v2.543a5.9381,5.9381,0,0,0,5.93808,5.93808h0a5.93807,5.93807,0,0,0,5.93807-5.93808v-2.543h2.54017a5.93806,5.93806,0,0,0,5.93807-5.93807v0A5.93806,5.93806,0,0,0,1490.59422,1677.7797Z"/>
    <path class="cls-3" d="M1407.10679,16.937h-4.96037V11.5957A11.5957,11.5957,0,0,0,1390.55069,0h0a11.59569,11.59569,0,0,0-11.5957,11.5957V16.937h-5.347a11.59569,11.59569,0,0,0-11.5957,11.5957v0a11.59569,11.59569,0,0,0,11.5957,11.5957h5.347v4.966a11.59574,11.59574,0,0,0,11.59572,11.59572h0a11.59571,11.59571,0,0,0,11.5957-11.59572v-4.966h4.96037a11.5957,11.5957,0,0,0,11.5957-11.5957v0A11.5957,11.5957,0,0,0,1407.10679,16.937Z"/>
    <path class="cls-3" d="M298.08407,1439.53724h-5.39788v-5.81243a12.61842,12.61842,0,0,0-12.61845-12.61843h0a12.61842,12.61842,0,0,0-12.61842,12.61843v5.81243h-5.81855a12.61841,12.61841,0,0,0-12.61842,12.61842v0a12.61842,12.61842,0,0,0,12.61842,12.61843h5.81855v5.404a12.61849,12.61849,0,0,0,12.61845,12.61846h0a12.61844,12.61844,0,0,0,12.61842-12.61846v-5.404h5.39788a12.61842,12.61842,0,0,0,12.61842-12.61843v0A12.61841,12.61841,0,0,0,298.08407,1439.53724Z"/>
  </g>
  <g id="Слой_1" data-name="Слой 1">
    <path class="cls-4" d="M813.27606,502.17224c0-89.50158,62.59406-162.05688,139.80781-162.05688s139.80781,72.5553,139.80781,162.05688c0,.4795-.01208.95559-.01563,1.43413h66.81859c.0006-.23957.00785-.47731.00785-.71706,0-131.87622-92.22937-238.78294-206-238.78294s-206,106.90672-206,238.78294c0,.23975.00725.47749.00785.71706H813.2917C813.28815,503.12783,813.27606,502.65174,813.27606,502.17224Z"/>
    <g>
      <g>
        <g>
          <rect class="cls-5" x="1139.44468" y="511.43499" width="33.23926" height="87.50977"/>
          <path class="cls-3" d="M1165.18418,518.935v72.50964h-18.23987V518.935h18.23987m15-15h-48.23987V606.44463h48.23987V503.935Z"/>
        </g>
        <g class="cls-6">
          <rect x="1139.44468" y="511.43499" width="33.23926" height="87.50977"/>
          <path d="M1165.18418,518.935v72.50964h-18.23987V518.935h18.23987m15-15h-48.23987V606.44463h48.23987V503.935Z"/>
        </g>
        <path class="cls-3" d="M1165.18418,518.935v72.50964h-18.23987V518.935h18.23987m15-15h-48.23987V606.44463h48.23987V503.935Z"/>
      </g>
      <g>
        <rect class="cls-5" x="1098.84897" y="493.34514" width="46.35156" height="123.52246"/>
        <path class="cls-3" d="M1137.70042,500.845V609.36773h-31.35181V500.845h31.35181m15-15h-61.35181V624.36773h61.35181V485.845Z"/>
      </g>
      <rect class="cls-7" x="1121.70249" y="496.10637" width="20" height="116"/>
      <path class="cls-3" d="M1137.70042,500.845V609.36779h-31.35181V500.845h31.35181m15-15h-61.35181V624.36779h61.35181V485.845Z"/>
    </g>
    <g>
      <g>
        <g>
          <rect class="cls-5" x="735.58237" y="511.43499" width="33.23975" height="87.50977"/>
          <path class="cls-3" d="M761.32212,518.935v72.50964H743.08225V518.935h18.23987m15-15H728.08225V606.44463h48.23987V503.935Z"/>
        </g>
        <g class="cls-6">
          <rect x="735.58237" y="511.43499" width="33.23975" height="87.50977"/>
          <path d="M761.32212,518.935v72.50964H743.08225V518.935h18.23987m15-15H728.08225V606.44463h48.23987V503.935Z"/>
        </g>
        <path class="cls-3" d="M761.32212,518.935v72.50964H743.08225V518.935h18.23987m15-15H728.08225V606.44463h48.23987V503.935Z"/>
      </g>
      <g>
        <rect class="cls-5" x="763.06577" y="493.34514" width="46.35205" height="123.52246"/>
        <path class="cls-3" d="M801.91776,500.845V609.36773H770.56589V500.845h31.35187m15-15H755.56589V624.36773h61.35187V485.845Z"/>
      </g>
    </g>
    <g>
      <path class="cls-3" d="M1364.70249,994.10637a18,18,0,1,1-18,18,18.02043,18.02043,0,0,1,18-18m0-15a33,33,0,1,0,33,33,33,33,0,0,0-33-33Z"/>
      <g>
        <path class="cls-8" d="M1396.59312,1065.60637a24.418,24.418,0,0,1-24.39063-24.39062V970.14934a11.5555,11.5555,0,0,1,11.543-11.543h69.43945a11.5555,11.5555,0,0,1,11.543,11.543v71.06641a24.418,24.418,0,0,1-24.39062,24.39062Z"/>
        <path class="cls-3" d="M1453.1854,966.10637a4.04713,4.04713,0,0,1,4.04248,4.04261v71.067a16.90955,16.90955,0,0,1-16.89038,16.89038h-43.74463a16.90955,16.90955,0,0,1-16.89038-16.89038V970.149a4.04715,4.04715,0,0,1,4.0426-4.04261h69.44031m0-15h-69.44031a19.04257,19.04257,0,0,0-19.0426,19.04261v71.067a31.89041,31.89041,0,0,0,31.89038,31.89038h43.74463a31.89041,31.89041,0,0,0,31.89038-31.89038V970.149a19.04254,19.04254,0,0,0-19.04248-19.04261Z"/>
      </g>
      <g class="cls-9">
        <path d="M1453.42271,951.10637a10.95757,10.95757,0,0,0-10.95752,10.95752v62a19.04251,19.04251,0,0,1-19.04248,19.04248h-44.72022l3,19c0,6.05164-11.85681,11-5.80518,11l85.80518-12,10.7627-90.95752A19.04252,19.04252,0,0,0,1453.42271,951.10637Z"/>
      </g>
      <path class="cls-3" d="M1453.18857,966.12761a4.04715,4.04715,0,0,1,4.04261,4.04261v70.92712a17.04959,17.04959,0,0,1-17.03028,17.03027h-43.46484a17.04959,17.04959,0,0,1-17.03027-17.03027V970.17022a4.04712,4.04712,0,0,1,4.04248-4.04261h69.4403m0-15h-69.4403a19.04254,19.04254,0,0,0-19.04248,19.04261v70.92712a32.03028,32.03028,0,0,0,32.03027,32.03027h43.46484a32.03029,32.03029,0,0,0,32.03028-32.03027V970.17022a19.04258,19.04258,0,0,0-19.04261-19.04261Z"/>
      <path class="cls-10" d="M1471.91361,882.531"/>
      <path class="cls-11" d="M1449.90977,842.55413h-24.574a10.84405,10.84405,0,1,0,0,21.68811s14.10413,0,27.2013-.00019a10.8454,10.8454,0,1,1,1.3955,21.60083h-59.99206a10.81988,10.81988,0,0,0,.06506,21.63965s14.10413,0,27.2013-.00018l1.80969.00144h59.81714a10.84406,10.84406,0,0,1,0,21.68811h-48.97315l-.25012.01306a10.84405,10.84405,0,0,0-10.84412,10.844"/>
    </g>
    <g>
      <g>
        <path class="cls-12" d="M414.20249,1063.60637a24,24,0,0,1,0-48h135a24,24,0,1,1,0,48Z"/>
        <path class="cls-3" d="M549.20255,1023.10637a16.5,16.5,0,0,1,0,33H414.20249a16.5,16.5,0,0,1,0-33H549.20255m0-15H414.20249a31.5,31.5,0,0,0,0,63H549.20255a31.5,31.5,0,0,0,0-63Z"/>
      </g>
      <rect class="cls-13" x="406.70249" y="1029.10637" width="151" height="21" rx="10.49999"/>
    </g>
    <g>
      <g>
        <path class="cls-14" d="M414.20249,1015.60637a24,24,0,0,1,0-48h135a24,24,0,1,1,0,48Z"/>
        <path class="cls-3" d="M549.20255,975.10637a16.5,16.5,0,0,1,0,33H414.20249a16.5,16.5,0,0,1,0-33H549.20255m0-15H414.20249a31.5,31.5,0,0,0,0,63H549.20255a31.5,31.5,0,0,0,0-63Z"/>
      </g>
      <rect class="cls-13" x="406.70249" y="981.10637" width="151" height="21" rx="10.49999"/>
    </g>
    <g>
      <rect class="cls-15" x="1353.45658" y="589.50623" width="26.60469" height="79.26645" rx="7.96878" transform="translate(1888.33482 2040.45267) rotate(-135.00001)"/>
      <rect class="cls-15" x="1444.39367" y="567.41091" width="26.60469" height="231.4608" rx="13.30233" transform="translate(-56.10437 1230.83478) rotate(-45.00002)"/>
      <rect class="cls-15" x="1517.11315" y="743.00187" width="26.60469" height="297.0857" rx="13.30233"/>
      <rect class="cls-15" x="1415.12851" y="1017.91699" width="230.57398" height="53.20938" rx="15.93755"/>
      <path class="cls-15" d="M1264.022,827.61691l-95.7673-95.76712a18.94121,18.94121,0,0,1,5.72225-30.71174l149.74143-66.32858a18.94121,18.94121,0,0,1,21.06465,3.92479l12.35417,12.35415a18.9412,18.9412,0,0,1,3.92483,21.06464l-66.3283,149.74155A18.94122,18.94122,0,0,1,1264.022,827.61691Z"/>
      <path class="cls-16" d="M1629.05186,1022.5017h-14.06238v7.27179a15.9376,15.9376,0,0,1-15.93762,15.93762H1414.4155v14.06238a15.9376,15.9376,0,0,0,15.93763,15.93762h198.69873a15.9376,15.9376,0,0,0,15.93762-15.93762v-21.33435A15.93752,15.93752,0,0,0,1629.05186,1022.5017Z"/>
      <rect class="cls-17" x="1414.64954" y="1018.20381" width="230.57398" height="53.20938" rx="15.93755"/>
    </g>
    <g>
      <path class="cls-18" d="M954.70249,953.60637c-17.28418,0-36.6001-20.1123-55.86035-58.16308-17.35791-34.29248-34.86572-83.91114-50.62988-143.49073-29.03662-109.74267-47.00977-233.30273-47.00977-284.84619,0-47.75244,14.98975-84.42431,44.55322-108.99658,26.37012-21.918,64.04346-33.50342,108.94678-33.50342,44.80273,0,82.29395,11.57813,108.42188,33.48291,29.248,24.52051,44.07812,61.19873,44.07812,109.01709,0,51.72119-17.7832,175.33789-46.51367,284.86133-15.85547,60.44287-32.77539,108.71924-50.28906,143.48877C991.23765,933.499,971.97788,953.60637,954.70249,953.60637Z"/>
      <path class="cls-3" d="M954.70249,332.10637c43.01782,0,78.84338,10.97211,103.60388,31.73035,27.46851,23.02847,41.39612,57.77344,41.39612,103.26965,0,51.25623-17.6897,174.01319-46.26843,282.9585-15.501,59.09112-32.698,108.20007-49.7323,142.01776-17.2937,34.33283-35.15332,54.02374-48.99927,54.02374-13.86072,0-31.782-19.7005-49.16882-54.05-17.12458-33.83167-34.43885-82.94214-50.0708-142.02234-28.88275-109.15992-46.76038-231.85334-46.76038-282.92768,0-45.41778,14.07953-80.149,41.84741-103.22894,25.00659-20.78482,61.02191-31.77106,104.15259-31.77106m0-15c-88.64178,0-161,43.96131-161,150s72.35822,494,161,494c88.64172,0,160-387.9613,160-494s-71.35828-150-160-150Z"/>
    </g>
    <g class="cls-9">
      <path d="M1049.0167,339.12426c14.08429,22.30829,22.16455,50.93817,22.16455,86.59912,0,106.03869-71.35834,494-160,494a31.67665,31.67665,0,0,1-8.3692-1.149c16.14557,26.244,33.42346,42.149,51.36914,42.149,88.64172,0,160-387.96131,160-494C1114.18119,403.22234,1088.58451,361.99169,1049.0167,339.12426Z"/>
    </g>
    <g>
      <g>
        <g>
          <rect class="cls-5" x="735.58237" y="511.43499" width="33.23975" height="87.50977"/>
          <path class="cls-3" d="M761.32206,518.935v72.50964H743.08225V518.935h18.23981m15-15H728.08225V606.44463h48.23981V503.935Z"/>
        </g>
        <g class="cls-6">
          <rect x="735.58237" y="511.43499" width="33.23975" height="87.50977"/>
          <path d="M761.32206,518.935v72.50964H743.08225V518.935h18.23981m15-15H728.08225V606.44463h48.23981V503.935Z"/>
        </g>
        <path class="cls-3" d="M761.32206,518.935v72.50964H743.08225V518.935h18.23981m15-15H728.08225V606.44463h48.23981V503.935Z"/>
      </g>
      <g>
        <rect class="cls-5" x="763.06577" y="493.34514" width="46.35205" height="123.52246"/>
        <path class="cls-3" d="M801.91776,500.845V609.36779H770.566V500.845h31.35181m15-15H755.566V624.36779h61.35181V485.845Z"/>
      </g>
      <rect class="cls-7" x="766.56385" y="496.10639" width="20" height="116" transform="translate(1553.12771 1108.21277) rotate(-180)"/>
      <path class="cls-3" d="M801.91776,500.845V609.36779H770.56589V500.845h31.35187m15-15H755.56589V624.36779h61.35187V485.845Z"/>
    </g>
    <path class="cls-3" d="M954.70249,332.10637c43.01782,0,78.84338,10.97211,103.60388,31.73035,27.46851,23.02847,41.39612,57.77344,41.39612,103.26965,0,51.25623-17.6897,174.01319-46.26843,282.9585-15.501,59.09112-32.698,108.20007-49.7323,142.01776-17.2937,34.33283-35.15332,54.02374-48.99927,54.02374-13.86072,0-31.782-19.7005-49.16882-54.05-17.12458-33.83167-34.43885-82.94214-50.0708-142.02234-28.88275-109.15992-46.76038-231.85334-46.76038-282.92768,0-45.41778,14.07953-80.149,41.84741-103.22894,25.00659-20.78482,61.02191-31.77106,104.15259-31.77106m0-15c-88.64178,0-161,43.96131-161,150s72.35822,494,161,494c88.64172,0,160-387.9613,160-494s-71.35828-150-160-150Z"/>
    <g>
      <path class="cls-19" d="M806.70444,558.24016c-3.23681-3.6123-9.76318-13.16308-20.44433-38.189-10.64844-24.9502-19.30664-50.853-20.93457-55.792-7.4751-22.686-13.86963-49.66456-4.62305-77.75293.46631-1.417.9707-2.832,1.49951-4.20655A133.29937,133.29937,0,0,1,771.58823,363.54c16.65479-27.03858,74.28076-68.01563,150.24805-74.46045,2.37891-.20166,11.11279-.85987,23.63477-.85987,21.9414,0,54.75488,1.98975,86.47851,11.47071,37.16992,11.1084,63.501,29.67138,78.26172,55.17334,11.47461,19.82226,14.293,40.84424,16.55762,57.73584,5.67382,42.32617-3.78809,73.60986-14.74512,109.834-7.89356,26.09766-13.08984,32.92236-14.67481,34.51563-1.44921-.69971-5.18261-3.72852-10.2207-12.33252A129.69689,129.69689,0,0,1,1076.349,520.332c-.16992-.53662-.39941-1.18848-.67871-1.97949a118.27254,118.27254,0,0,1-4.34375-15.27637c-.79882-3.6167-1.28418-6.60107-1.71289-9.23389-1.07617-6.61084-1.92578-11.833-6.43945-17.77343-8.58691-11.30127-21.06641-12.751-30.97949-12.751-6.75391,0-14.03321.75-22.46289,1.61865a324.39748,324.39748,0,0,1-34.16407,2.21875,184.16743,184.16743,0,0,1-19.57617-1.00732c-33.80908-3.57764-58.91992-16.01709-79.09668-26.01221-14.2666-7.06738-25.53515-12.6499-35.61474-12.6499a22.2928,22.2928,0,0,0-14.97217,5.438c-6.94922,5.98535-7.38623,12.68994-8.25732,26.04638-.29151,4.46729-.65381,10.02735-1.314,16.92139l-.17187,1.7793C812.96079,516.11467,810.0189,547.48919,806.70444,558.24016Z"/>
      <path class="cls-3" d="M945.47123,295.71941c21.44073,0,53.47577,1.93564,84.33111,11.15689,35.27674,10.54273,60.14637,27.95209,73.91809,51.74457,10.72974,18.53689,13.43848,38.74252,15.615,54.97855,5.45776,40.71228-3.7865,71.27526-14.49061,106.66424a190.64939,190.64939,0,0,1-8.82812,24.41571,75.98236,75.98236,0,0,1-3.95923-6.59845,125.73385,125.73385,0,0,1-8.5614-20.02344c-.22351-.70245-.47009-1.39965-.75549-2.20691a111.29382,111.29382,0,0,1-4.09021-14.39135c-.75367-3.41248-1.22144-6.28644-1.63416-8.82221-1.14477-7.03369-2.22607-13.67724-7.87024-21.10534-10.70044-14.08326-26.21325-15.713-36.95105-15.71375-7.13977-.00043-14.95776.80512-23.23462,1.658a318.1942,318.1942,0,0,1-33.39343,2.17926,176.82309,176.82309,0,0,1-18.78583-.96545c-32.47345-3.43659-56.91662-15.54517-76.55713-25.27472-15.14544-7.50287-27.10833-13.429-38.94372-13.429a29.59751,29.59751,0,0,0-19.86707,7.25525c-9.33374,8.03955-9.93554,17.26941-10.84655,31.24048-.288,4.41693-.64643,9.914-1.296,16.69671l-.1054,1.0904-.0672.69671c-2.26844,24.19635-4.06031,43.30811-5.83783,57.37427q-.23484,1.85862-.46094,3.526c-2.952-5.71924-6.56165-13.39129-10.863-23.64721C781.93778,490.37877,773.949,466.46392,772.449,461.912c-7.44989-22.60889-13.16614-47.1081-4.6228-73.0611.42267-1.28378.8811-2.57022,1.36285-3.82431a125.67311,125.67311,0,0,1,8.78485-17.55322c6.26514-10.17093,22.2035-26.33475,48.14759-41.198a234.57355,234.57355,0,0,1,96.34887-29.72275c2.30445-.19543,10.7735-.83325,23.00086-.83325m0-15c-13.0351,0-21.99909.6944-24.26874.887-81.774,6.93772-139.65918,51.47181-156,78a139.681,139.681,0,0,0-10,20c-.40027,1.04053-.98645,2.61719-1.62421,4.55454-10.45764,31.7681-2.23773,61.62091,4.62421,82.44543,7.97961,24.21637,35.50781,101.12,50.03308,101.12a3.90591,3.90591,0,0,0,.96692-.12c6.6217-1.68945,9.35779-30.87317,14.83-89.24072.02936-.31433.08935-.91608.17-1.75928,2.49616-26.06744.75739-32.62286,7-38a14.7946,14.7946,0,0,1,10.0777-3.62048c20.74151,0,55.21844,32.4082,113.9223,38.62048a192.88755,192.88755,0,0,0,20.36426,1.04883c23.2716,0,42.17871-3.83813,56.6272-3.83722,10.87048.00067,19.223,2.174,25.00854,9.78839,4.86206,6.39893,4.02527,11.52155,6.801,24.08814a135.3961,135.3961,0,0,0,5.199,17.91186c4.65344,14.62262,17.422,42.00867,28.65527,42.00867.11487,0,.23011-.00287.34473-.00867,2.59326-.13086,9.47913-1.91,21-40,11.095-36.68158,20.88977-69.06469,15-113-2.30444-17.19009-5.28027-39.389-17.5-60.5-36.132-62.42251-127.07092-70.387-171.23126-70.387Z"/>
    </g>
    <path class="cls-3" d="M810.63871,386.2423a181.64965,181.64965,0,0,1,15.69513,9.75912c4.94952,3.33222,9.70416,6.7204,14.42242,10.09742,9.38977,6.7785,18.62616,13.66824,28.609,19.538l3.7298,2.21777c1.23193.7627,2.52673,1.41047,3.777,2.14508,2.49755,1.47822,5.08691,2.78461,7.64978,4.16065,1.27313.7066,2.58941,1.324,3.88446,1.99243q1.94678.99455,3.92071,1.94019l3.94763,1.91394q2.004.88851,3.99768,1.82757c5.35431,2.3996,10.77808,4.74408,16.31019,6.94226,5.53021,2.20893,11.15118,4.2934,16.84863,6.48578l-.45728,2.68762a135.65912,135.65912,0,0,1-36.73236-4.64111,160.359,160.359,0,0,1-17.7818-5.7663,167.71673,167.71673,0,0,1-17.04492-7.85046c-1.4046-.69836-2.7533-1.49676-4.11328-2.27649-1.35858-.78192-2.72327-1.55572-4.06909-2.36078-2.63764-1.69488-5.32587-3.32037-7.8877-5.13214-2.55243-1.82446-5.14728-3.59241-7.59845-5.55292-2.44818-1.9624-4.82788-4.011-7.08728-6.18927a91.1217,91.1217,0,0,1-12.22467-14.29464,76.92155,76.92155,0,0,1-4.90484-8.08826,54.352,54.352,0,0,1-3.76319-8.82736Z"/>
    <path class="cls-16" d="M810.70249,387.10637c.96021-1.70587,9.69043,1.487,64,24,54.18054,22.45957,59.04993,24.9021,72,27,7.35156,1.19095,4.07935.1279,65,1,35.54248.50882,49.12866,1.0492,62,11,12.40979,9.594,17.43018,22.73676,19,27,5.712,15.513.759,21.68717,3,61,.59619,10.45963,1.3269,16.69,0,17-3.35681.78409-16.06409-37.21154-18-43-5.92517-17.71643-6.797-23.2594-13-31a55.71305,55.71305,0,0,0-23-17c-17.7605-6.72122-30.30322.375-53,3-29.04614,3.35929-52.18091-3.21127-62-6-18.93469-5.37765-34.8844-15.6456-66-36C848.08481,416.85251,808.52512,390.9744,810.70249,387.10637Z"/>
    <g>
      <g>
        <path class="cls-20" d="M414.20249,967.40618a24,24,0,0,1,0-48h135a24,24,0,1,1,0,48Z"/>
        <path class="cls-3" d="M549.20255,926.90636a16.5,16.5,0,0,1,0,33.00006H414.20249a16.5,16.5,0,0,1,0-33.00006H549.20255m0-15H414.20249a31.5,31.5,0,0,0-31.5,31.49994v.00012a31.5,31.5,0,0,0,31.5,31.5H549.20255a31.5,31.5,0,0,0,31.49994-31.5v-.00012a31.5,31.5,0,0,0-31.49994-31.49994Z"/>
      </g>
      <rect class="cls-13" x="406.70249" y="932.90637" width="151" height="21" rx="10.49999"/>
    </g>
    <rect class="cls-7" x="394.70249" y="944.10637" width="155" height="20"/>
    <path class="cls-16" d="M805.70249,547.10637c-1.01465-.03335-1.7832-2.58545-3-9a242.98489,242.98489,0,0,1-4-54c.967-28.365,1.45056-42.54754,2-49,2.12134-24.91085,4.14856-47.32832,10-48,4.2384-.48651,4.95422,11.08753,19,25,7.64673,7.57413,13.87659,10.57216,13,14-1.16284,4.54734-12.73206,1.63925-20,8-8.2019,7.1781-5.13074,21.04126-4,36C821.75608,510.50264,809.592,547.23418,805.70249,547.10637Z"/>
    <rect class="cls-7" x="393.70249" y="992.10637" width="155" height="20"/>
    <rect class="cls-7" x="396.70249" y="1040.10637" width="155" height="20"/>
    <path class="cls-3" d="M945.47123,295.71941c21.44073,0,53.47577,1.93564,84.33111,11.15689,35.27674,10.54273,60.14637,27.95209,73.91809,51.74457,10.72974,18.53689,13.43848,38.74252,15.615,54.97855,5.45776,40.71228-3.7865,71.27526-14.49061,106.66424a190.64939,190.64939,0,0,1-8.82812,24.41571,75.98236,75.98236,0,0,1-3.95923-6.59845,125.73385,125.73385,0,0,1-8.5614-20.02344c-.22351-.70245-.47009-1.39965-.75549-2.20691a111.29382,111.29382,0,0,1-4.09021-14.39135c-.75367-3.41248-1.22144-6.28644-1.63416-8.82221-1.14477-7.03363-2.22607-13.67718-7.87024-21.10534-10.70044-14.08326-26.21325-15.713-36.95105-15.71375-7.13977-.00043-14.95776.80512-23.23462,1.658a318.1942,318.1942,0,0,1-33.39343,2.17926,176.82309,176.82309,0,0,1-18.78583-.96545c-32.47345-3.43659-56.91662-15.54517-76.55713-25.27472-15.14544-7.50287-27.10833-13.429-38.94372-13.429a29.59751,29.59751,0,0,0-19.86707,7.25525c-9.33374,8.03955-9.93554,17.26941-10.84655,31.24048-.288,4.41693-.64643,9.914-1.296,16.69671l-.1054,1.0904-.0672.69671c-2.26844,24.19635-4.06031,43.30811-5.83783,57.37427q-.23484,1.85862-.46094,3.526c-2.952-5.71924-6.56165-13.39129-10.863-23.64721C781.93778,490.37877,773.949,466.46392,772.449,461.912c-7.44989-22.60889-13.16614-47.1081-4.6228-73.0611.42267-1.28378.8811-2.57022,1.36285-3.82431a125.67311,125.67311,0,0,1,8.78485-17.55322c6.26514-10.17093,22.2035-26.33475,48.14759-41.198a234.57355,234.57355,0,0,1,96.34887-29.72275c2.30445-.19543,10.7735-.83325,23.00086-.83325m0-15c-13.0351,0-21.99909.6944-24.26874.887-81.774,6.93772-139.65918,51.47181-156,78a139.681,139.681,0,0,0-10,20c-.40027,1.04053-.98645,2.61719-1.62421,4.55454-10.45764,31.7681-2.23773,61.62091,4.62421,82.44543,7.97961,24.21637,35.50781,101.12,50.033,101.12a3.90639,3.90639,0,0,0,.967-.12c6.6217-1.68945,9.35779-30.87317,14.83-89.24072.02936-.31433.08935-.91608.17-1.75928,2.49616-26.06744.75739-32.62286,7-38a14.7946,14.7946,0,0,1,10.0777-3.62048c20.74151,0,55.21844,32.4082,113.9223,38.62048a192.88755,192.88755,0,0,0,20.36426,1.04883c23.2716,0,42.17871-3.83813,56.6272-3.83722,10.87048.00067,19.223,2.174,25.00854,9.78839,4.86206,6.399,4.02527,11.52155,6.801,24.08814a135.3961,135.3961,0,0,0,5.199,17.91186c4.65344,14.62274,17.422,42.00867,28.65527,42.00867.11487,0,.23011-.00287.34473-.00867,2.59326-.13086,9.47913-1.91,21-40,11.095-36.68158,20.88977-69.06469,15-113-2.30444-17.19009-5.28027-39.389-17.5-60.5-36.132-62.42251-127.07092-70.387-171.23126-70.387Z"/>
    <g>
      <path class="cls-3" d="M549.18125,1023.25957a16.5,16.5,0,0,1,0,33H414.18119a16.5,16.5,0,0,1,0-33H549.18125m0-15H414.18119a31.5,31.5,0,0,0,0,63H549.18125a31.5,31.5,0,0,0,0-63Z"/>
      <rect class="cls-21" x="406.68121" y="1029.25957" width="151" height="21" rx="10.49999"/>
      <path class="cls-3" d="M549.18125,975.25957a16.5,16.5,0,0,1,0,33H414.18119a16.5,16.5,0,1,1,0-33H549.18125m0-15H414.18119a31.5,31.5,0,1,0,0,63H549.18125a31.5,31.5,0,0,0,0-63Z"/>
      <rect class="cls-21" x="406.68121" y="981.25957" width="151" height="21" rx="10.49999"/>
      <path class="cls-3" d="M549.18125,927.05956a16.5,16.5,0,0,1,0,33.00006H414.18119a16.5,16.5,0,0,1,0-33.00006H549.18125m0-15H414.18119a31.5,31.5,0,0,0-31.5,31.5v.00006a31.5,31.5,0,0,0,31.5,31.5H549.18125a31.5,31.5,0,0,0,31.49994-31.5v-.00006a31.5,31.5,0,0,0-31.49994-31.5Z"/>
      <rect class="cls-21" x="406.68121" y="933.05957" width="151" height="21" rx="10.49999"/>
    </g>
    <path class="cls-3" d="M810.63871,386.2423a181.64965,181.64965,0,0,1,15.69513,9.75912c4.94952,3.33222,9.70416,6.7204,14.42242,10.09742,9.38977,6.7785,18.62616,13.66824,28.609,19.538l3.7298,2.21777c1.23193.7627,2.52673,1.41047,3.777,2.14508,2.49755,1.47822,5.08691,2.78461,7.64978,4.16065,1.27313.7066,2.58941,1.324,3.88446,1.99243q1.94678.99455,3.92071,1.94019l3.94763,1.91394q2.004.88851,3.99768,1.82757c5.35431,2.3996,10.77808,4.74408,16.31019,6.94226,5.53021,2.20893,11.15118,4.2934,16.84863,6.48578l-.45728,2.68762a135.65912,135.65912,0,0,1-36.73236-4.64111,160.359,160.359,0,0,1-17.7818-5.7663,167.71673,167.71673,0,0,1-17.04492-7.85046c-1.4046-.69836-2.7533-1.49676-4.11328-2.27649-1.35858-.78192-2.72327-1.55572-4.06909-2.36078-2.63764-1.69488-5.32587-3.32037-7.8877-5.13214-2.55243-1.82446-5.14728-3.59241-7.59845-5.55292-2.44818-1.9624-4.82788-4.011-7.08728-6.18927a91.1217,91.1217,0,0,1-12.22467-14.29464,76.92155,76.92155,0,0,1-4.90484-8.08826,54.352,54.352,0,0,1-3.76319-8.82736Z"/>
    <g>
      <rect class="cls-3" x="864.70249" y="521.10637" width="21" height="71" rx="10.49999"/>
      <rect class="cls-3" x="849.70249" y="519.10637" width="52" height="12.81159" rx="6.40579"/>
      <rect class="cls-3" x="998.46845" y="522.26595" width="21" height="69.84043" rx="10.49999"/>
      <rect class="cls-3" x="983.46845" y="520.26595" width="52" height="12.81159" rx="6.40579"/>
    </g>
    <g>
      <path class="cls-22" d="M330.70249,1014.60637a24.52752,24.52752,0,0,1-24.5-24.5v-37a24.5,24.5,0,0,1,49,0v37A24.52752,24.52752,0,0,1,330.70249,1014.60637Z"/>
      <path class="cls-3" d="M330.70255,936.10637a17.01922,17.01922,0,0,1,16.99994,16.99994v37.00012a17,17,0,0,1-34,0V953.10631a17.01926,17.01926,0,0,1,17.00006-16.99994m0-15h-.00012a31.99992,31.99992,0,0,0-31.99994,31.99994v37.00012a31.99991,31.99991,0,0,0,31.99994,31.99994h.00012a31.99991,31.99991,0,0,0,31.99994-31.99994V953.10631a31.99992,31.99992,0,0,0-31.99994-31.99994Z"/>
    </g>
    <g>
      <path class="cls-23" d="M537.20249,1063.60637V650.59563a22.01406,22.01406,0,0,1,21.98926-21.98926h751.02148a22.01406,22.01406,0,0,1,21.98926,21.98926v413.01074Z"/>
      <path class="cls-3" d="M1310.21311,636.10637a14.50592,14.50592,0,0,1,14.48938,14.48944v405.51056h-780V650.59581a14.50593,14.50593,0,0,1,14.48944-14.48944h751.02118m0-15H559.19193a29.48945,29.48945,0,0,0-29.48944,29.48944v420.51056h810V650.59581a29.48944,29.48944,0,0,0-29.48938-29.48944Z"/>
    </g>
    <g class="cls-2">
      <circle cx="934.70249" cy="846.10637" r="72"/>
    </g>
    <g class="cls-2">
      <path d="M1311.21311,621.10637h-20.51062V991.617a29.48942,29.48942,0,0,1-29.48938,29.48938H530.70249v50h810V650.59569A29.48937,29.48937,0,0,0,1311.21311,621.10637Z"/>
    </g>
    <path class="cls-3" d="M1311.21311,636.10637a14.50592,14.50592,0,0,1,14.48938,14.48944v405.51056h-780V650.59581a14.50593,14.50593,0,0,1,14.48944-14.48944h751.02118m0-15H560.19193a29.48945,29.48945,0,0,0-29.48944,29.48944v420.51056h810V650.59581a29.48944,29.48944,0,0,0-29.48938-29.48944Z"/>
    <path class="cls-3" d="M956.79526,876.436a62.80008,62.80008,0,0,1-20.70117,3.7002c-10.20019,0-18.60107-2.6001-25.20117-8.90088-5.80078-5.6001-9.40088-14.60059-9.40088-25.10156.1001-20.10108,13.90088-34.80176,36.50244-34.80176,7.80078,0,13.90039,1.70019,16.80078,3.1001l-2.09961,7.10058a34.94065,34.94065,0,0,0-14.90136-2.90039c-16.40088,0-27.10157,10.20069-27.10157,27.10156,0,17.10108,10.30079,27.20166,26.00147,27.20166,5.70068,0,9.60107-.7998,11.60107-1.7998V851.03411H934.59409v-7.00049h22.20117Z"/>
    <g>
      <path class="cls-24" d="M235.70249,1108.60637a22.5,22.5,0,0,1,0-45h1414a22.5,22.5,0,1,1,0,45Z"/>
      <path class="cls-3" d="M1649.70249,1071.10637a15,15,0,1,1,0,30h-1414a15,15,0,0,1,0-30h1414m0-15h-1414a30,30,0,0,0,0,60h1414a30,30,0,1,0,0-60Z"/>
    </g>
    <g>
      <polygon class="cls-25" points="302.732 1063.606 284.032 978.606 376.464 978.606 358.614 1063.606 302.732 1063.606"/>
      <path class="cls-3" d="M367.22532,986.10637l-14.7,70H308.76118l-15.4-70h73.86414m18.47717-15h-111l22,100h68l21-100Z"/>
    </g>
    <g>
      <rect class="cls-22" x="317.70249" y="948.10637" width="12" height="7" rx="3.5"/>
      <path class="cls-3" d="M326.20249,948.10637h-5a3.5,3.5,0,0,0,0,7h5a3.5,3.5,0,1,0,0-7Z"/>
    </g>
    <g>
      <rect class="cls-22" x="332.70249" y="958.10637" width="12" height="7" rx="3.5"/>
      <path class="cls-3" d="M341.20249,958.10637h-5a3.5,3.5,0,0,0,0,7h5a3.5,3.5,0,1,0,0-7Z"/>
    </g>
    <g class="cls-9">
      <polygon points="349.502 971.006 334.802 1041.006 290.203 1041.006 296.802 1071.006 364.802 1071.006 385.802 971.006 349.502 971.006"/>
    </g>
    <path class="cls-3" d="M367.22532,986.10637l-14.7,70H308.76118l-15.4-70h73.86414m18.47717-15h-111l22,100h68l21-100Z"/>
    <path class="cls-1" d="M980.95261,1441.29253a112.65307,112.65307,0,0,1,35.88587,5.83264,112.64168,112.64168,0,0,0-36.30616-5.97278c-3.14135,0-6.25085.13465-9.32714.3866H973.576C976.01548,1441.3814,978.47349,1441.29253,980.95261,1441.29253Z"/>
    <rect class="cls-4" x="750.20249" y="497.60637" width="7" height="5"/>
    <g>
      <g class="cls-9">
        <rect x="630.70249" y="745.10637" width="163" height="92" rx="24.88298"/>
      </g>
      <g>
        <rect class="cls-3" x="633.20249" y="748.60637" width="148" height="77" rx="17.38281"/>
        <path class="cls-13" d="M763.8195,756.10637a9.89416,9.89416,0,0,1,9.883,9.883v42.234a9.89416,9.89416,0,0,1-9.883,9.883h-113.234a9.89416,9.89416,0,0,1-9.883-9.883v-42.234a9.89416,9.89416,0,0,1,9.883-9.883h113.234m0-15h-113.234a24.883,24.883,0,0,0-24.883,24.883v42.234a24.883,24.883,0,0,0,24.883,24.883h113.234a24.883,24.883,0,0,0,24.883-24.883v-42.234a24.883,24.883,0,0,0-24.883-24.883Z"/>
      </g>
      <text class="cls-26" transform="translate(673.04282 799.75481)"><tspan class="cls-27">h</tspan><tspan x="19.28467" y="0">tml</tspan></text>
    </g>
    <g class="cls-9">
      <rect x="1073.70249" y="889.10637" width="163" height="92" rx="24.88298"/>
    </g>
    <g>
      <path class="cls-3" d="M1093.5856,892.60623H1206.819a17.3833,17.3833,0,0,1,17.3833,17.3833v42.23389a17.38281,17.38281,0,0,1-17.38281,17.38281H1093.58512a17.38281,17.38281,0,0,1-17.38281-17.38281V909.98953A17.3833,17.3833,0,0,1,1093.5856,892.60623Z"/>
      <path class="cls-13" d="M1206.81949,900.10635a9.89416,9.89416,0,0,1,9.883,9.883v42.23407a9.89415,9.89415,0,0,1-9.883,9.88293h-113.234a9.89414,9.89414,0,0,1-9.883-9.88293V909.98935a9.89416,9.89416,0,0,1,9.883-9.883h113.234m0-15h-113.234a24.883,24.883,0,0,0-24.883,24.883v42.23407a24.883,24.883,0,0,0,24.883,24.88293h113.234a24.883,24.883,0,0,0,24.883-24.88293V909.98935a24.883,24.883,0,0,0-24.883-24.883Z"/>
    </g>
    <circle class="cls-16" cx="1140.7025" cy="775.1064" r="65"/>
    <text class="cls-26" transform="translate(1122.79771 943.75481)">CSS</text>
    <circle class="cls-28" cx="1135.70249" cy="768.10637" r="65"/>
    <rect class="cls-22" x="1118.70249" y="735.10637" width="33.75" height="80" rx="16.87498"/>
    <rect class="cls-22" x="1130.21313" y="758.10637" width="40" height="13.10306" rx="6.55152"/>
    <rect class="cls-22" x="1157.04853" y="744.10643" width="13.10306" height="26.89367" rx="6.55152"/>
    <rect class="cls-22" x="1098.06588" y="766.10637" width="15.647" height="31.76596" rx="7.82349"/>
    <rect class="cls-22" x="1098.31592" y="782.1518" width="41.66819" height="15.647" rx="7.82349"/>
  </g>
</svg>
