<svg xmlns="http://www.w3.org/2000/svg" viewBox="0 0 1802.5 1698.1">
  <defs>
    <style>
      .cls-1 {
        fill: #e6e6e6;
      }

      .cls-2 {
        opacity: 0.15;
      }

      .cls-3 {
        fill: #404040;
      }

      .cls-4, .cls-5 {
        fill: #b57bf2;
      }

      .cls-15, .cls-17, .cls-4 {
        stroke: #404040;
      }

      .cls-10, .cls-11, .cls-15, .cls-17, .cls-4 {
        stroke-miterlimit: 10;
        stroke-width: 15px;
      }

      .cls-6, .cls-7 {
        opacity: 0.2;
      }

      .cls-8 {
        fill: #6f8957;
      }

      .cls-16, .cls-9 {
        opacity: 0.1;
      }

      .cls-10, .cls-11, .cls-17, .cls-21 {
        fill: none;
      }

      .cls-10, .cls-11 {
        stroke: #000;
        stroke-linecap: round;
      }

      .cls-11 {
        opacity: 0.3;
      }

      .cls-12 {
        fill: #a6bd52;
      }

      .cls-13 {
        fill: #fcfcfc;
      }

      .cls-14 {
        fill: #bd002e;
      }

      .cls-15 {
        fill: #c34134;
      }

      .cls-18 {
        fill: #ffcf8d;
      }

      .cls-19 {
        fill: #8c6239;
      }

      .cls-20 {
        fill: #7b00df;
      }

      .cls-22 {
        fill: #6f8941;
      }

      .cls-23 {
        fill: #f2f2f2;
      }

      .cls-24 {
        fill: #a67c52;
      }

      .cls-25 {
        fill: #6f89a5;
      }
    </style>
  </defs>
  <g id="Слой_2" data-name="Слой 2">
    <path class="cls-1" d="M1539.9,472.2H1632c94.1,0,170.5-76.4,170.5-170.5A170.5,170.5,0,0,0,1632,131.2H800.4v.4h-154A170.5,170.5,0,0,0,475.9,302.2c0,3.6.1,7.1.3,10.6-4.9,85.5-72.9,154.1-158.2,160H259.4a112.8,112.8,0,0,0-.2,225.5v.5h52.6v.4l4.7-.4h16.9c78.8,4.5,141.4,69.8,141.4,149.7A149.9,149.9,0,0,1,341.7,997.4H170.8v.4h-.3a170.5,170.5,0,0,0,0,341c3.7,0,7.5-.2,11.1-.4H292.5c60.3.7,109.1,45.7,110,101.4-.3,3.3-.5,6.6-.5,10a111.6,111.6,0,0,0,111.6,111.5h722v-.2h238.2v-.3h100.8a111.5,111.5,0,0,0,0-223h-94.4c-89.8-4.9-161.1-79.2-161.1-170.2s73-167.2,164.3-170.4h49.7v-.3A149.8,149.8,0,0,0,1682.9,847c0-81.3-64.7-147.5-145.4-149.8h13.3a106.4,106.4,0,0,1-32.1-6.3c-39.2-14.2-76.9-55.2-76.9-106.9A112.7,112.7,0,0,1,1539.9,472.2Z"/>
    <g class="cls-2">
      <circle cx="629.7" cy="281.1" r="72"/>
    </g>
    <g class="cls-2">
      <circle cx="1308.2" cy="456.6" r="45.5"/>
    </g>
    <g class="cls-2">
      <circle cx="1085.7" cy="1286.1" r="36"/>
    </g>
    <g class="cls-2">
      <circle cx="575.8" cy="1353" r="53.9"/>
    </g>
    <g class="cls-2">
      <circle cx="1438.2" cy="1441.6" r="24.5"/>
    </g>
    <g class="cls-2">
      <circle cx="274.7" cy="1145.1" r="36"/>
    </g>
    <g class="cls-2">
      <circle cx="1569.8" cy="811.1" r="52.9"/>
    </g>
    <path class="cls-3" d="M1173.6,188.6H1170v-3.9a8.7,8.7,0,0,0-8.6-8.6h0a8.6,8.6,0,0,0-8.6,8.6v3.9h-4a8.7,8.7,0,0,0-8.6,8.6h0a8.6,8.6,0,0,0,8.6,8.6h4v3.7a8.6,8.6,0,0,0,8.6,8.6h0a8.7,8.7,0,0,0,8.6-8.6v-3.7h3.6a8.5,8.5,0,0,0,8.6-8.6h0A8.6,8.6,0,0,0,1173.6,188.6Z"/>
    <path class="cls-3" d="M1604.3,256h-2.6v-2.8a6.1,6.1,0,0,0-6.1-6.1h0a6,6,0,0,0-6,6.1V256h-2.8a6,6,0,0,0-6.1,6h0a6.1,6.1,0,0,0,6.1,6.1h2.8v2.6a6.1,6.1,0,0,0,6,6.1h0a6.1,6.1,0,0,0,6.1-6.1v-2.6h2.6a6,6,0,0,0,6-6.1h0A6,6,0,0,0,1604.3,256Z"/>
    <path class="cls-3" d="M354.7,571.4h-3.4v-3.7a8,8,0,0,0-8-8h0a7.9,7.9,0,0,0-7.9,8v3.7h-3.7a7.9,7.9,0,0,0-8,7.9h0a8,8,0,0,0,8,8h3.7v3.4a7.9,7.9,0,0,0,7.9,8h0a8,8,0,0,0,8-8v-3.4h3.4a8,8,0,0,0,8-8h0A7.9,7.9,0,0,0,354.7,571.4Z"/>
    <path class="cls-3" d="M875.1,1453.5h-3.7v-4a8.6,8.6,0,0,0-8.6-8.6h0a8.7,8.7,0,0,0-8.6,8.6v4h-3.9a8.5,8.5,0,0,0-8.6,8.6h0a8.5,8.5,0,0,0,8.6,8.5h3.9v3.7a8.6,8.6,0,0,0,8.6,8.6h0a8.5,8.5,0,0,0,8.6-8.6v-3.7h3.7a8.6,8.6,0,0,0,8.6-8.5h0A8.6,8.6,0,0,0,875.1,1453.5Z"/>
    <path class="cls-3" d="M1290.4,1301h-2.6v-2.8a6.1,6.1,0,0,0-6.1-6.1h0a6.1,6.1,0,0,0-6.1,6.1v2.8h-2.8a6.1,6.1,0,0,0-6.1,6.1h0a6.1,6.1,0,0,0,6.1,6.1h2.8v2.6a6.1,6.1,0,0,0,6.1,6.1h0a6.1,6.1,0,0,0,6.1-6.1v-2.6h2.6a6.1,6.1,0,0,0,6.1-6.1h0A6.1,6.1,0,0,0,1290.4,1301Z"/>
    <path class="cls-3" d="M145.2,1059.9h-2.6v-2.8a6,6,0,0,0-6-6h0a6,6,0,0,0-6,6v2.8h-2.8a6.1,6.1,0,0,0-6.1,6.1h0a6,6,0,0,0,6.1,6h2.8v2.6a6,6,0,0,0,6,6h0a6,6,0,0,0,6-6V1072h2.6a6,6,0,0,0,6-6h0A6,6,0,0,0,145.2,1059.9Z"/>
    <path class="cls-3" d="M206.9,308.2h-3.7v-4a8.6,8.6,0,0,0-8.6-8.6h0a8.7,8.7,0,0,0-8.6,8.6v4h-3.9a8.5,8.5,0,0,0-8.6,8.6h0a8.5,8.5,0,0,0,8.6,8.5H186V329a8.6,8.6,0,0,0,8.6,8.6h0a8.5,8.5,0,0,0,8.6-8.6v-3.7h3.7a8.6,8.6,0,0,0,8.6-8.5h0A8.6,8.6,0,0,0,206.9,308.2Z"/>
    <path class="cls-3" d="M1712.9,668.6h-3.7v-4a8.6,8.6,0,0,0-8.6-8.6h0a8.7,8.7,0,0,0-8.6,8.6v4h-3.9a8.5,8.5,0,0,0-8.6,8.6h0a8.5,8.5,0,0,0,8.6,8.5h3.9v3.7a8.6,8.6,0,0,0,8.6,8.6h0a8.5,8.5,0,0,0,8.6-8.6v-3.7h3.7a8.6,8.6,0,0,0,8.6-8.5h0A8.6,8.6,0,0,0,1712.9,668.6Z"/>
    <path class="cls-3" d="M1490.6,1677.8h-2.5V1675a6,6,0,0,0-6-5.9h0a5.9,5.9,0,0,0-5.9,5.9v2.8h-2.8a5.9,5.9,0,0,0-5.9,5.9h0a6,6,0,0,0,5.9,6h2.8v2.5a5.8,5.8,0,0,0,5.9,5.9h0a5.9,5.9,0,0,0,6-5.9v-2.5h2.5a5.9,5.9,0,0,0,5.9-6h0A5.8,5.8,0,0,0,1490.6,1677.8Z"/>
    <path class="cls-3" d="M1407.1,16.9h-5V11.6A11.5,11.5,0,0,0,1390.6,0h0A11.5,11.5,0,0,0,1379,11.6v5.3h-5.4A11.6,11.6,0,0,0,1362,28.5h0a11.6,11.6,0,0,0,11.6,11.6h5.4v5a11.5,11.5,0,0,0,11.6,11.6h0a11.5,11.5,0,0,0,11.5-11.6v-5h5a11.6,11.6,0,0,0,11.6-11.6h0A11.6,11.6,0,0,0,1407.1,16.9Z"/>
    <path class="cls-3" d="M298.1,1439.5h-5.4v-5.8a12.7,12.7,0,0,0-12.6-12.6h0a12.7,12.7,0,0,0-12.7,12.6v5.8h-5.8a12.7,12.7,0,0,0-12.6,12.7h0a12.7,12.7,0,0,0,12.6,12.6h5.8v5.4a12.7,12.7,0,0,0,12.7,12.6h0a12.7,12.7,0,0,0,12.6-12.6v-5.4h5.4a12.6,12.6,0,0,0,12.6-12.6h0A12.6,12.6,0,0,0,298.1,1439.5Z"/>
  </g>
  <g id="Слой_1" data-name="Слой 1">
    <path class="cls-4" d="M813.3,502.2c0-89.5,62.6-162.1,139.8-162.1s139.8,72.6,139.8,162.1v1.4h66.8v-.7c0-131.9-92.2-238.8-206-238.8s-206,106.9-206,238.8v.7h65.6Z"/>
    <g>
      <g>
        <g>
          <rect class="cls-5" x="1139.4" y="511.4" width="33.2" height="87.51"/>
          <path class="cls-3" d="M1165.2,518.9v72.5h-18.3V518.9h18.3m15-15h-48.3V606.4h48.3V503.9Z"/>
        </g>
        <g class="cls-6">
          <rect x="1139.4" y="511.4" width="33.2" height="87.51"/>
          <path d="M1165.2,518.9v72.5h-18.3V518.9h18.3m15-15h-48.3V606.4h48.3V503.9Z"/>
        </g>
        <path class="cls-3" d="M1165.2,518.9v72.5h-18.3V518.9h18.3m15-15h-48.3V606.4h48.3V503.9Z"/>
      </g>
      <g>
        <rect class="cls-5" x="1098.8" y="493.3" width="46.4" height="123.52"/>
        <path class="cls-3" d="M1137.7,500.8V609.4h-31.4V500.8h31.4m15-15h-61.4V624.4h61.4V485.8Z"/>
      </g>
      <rect class="cls-7" x="1121.7" y="496.1" width="20" height="116"/>
      <path class="cls-3" d="M1137.7,500.8V609.4h-31.4V500.8h31.4m15-15h-61.4V624.4h61.4V485.8Z"/>
    </g>
    <g>
      <g>
        <g>
          <rect class="cls-5" x="735.6" y="511.4" width="33.2" height="87.51"/>
          <path class="cls-3" d="M761.3,518.9v72.5H743.1V518.9h18.2m15-15H728.1V606.4h48.2V503.9Z"/>
        </g>
        <g class="cls-6">
          <rect x="735.6" y="511.4" width="33.2" height="87.51"/>
          <path d="M761.3,518.9v72.5H743.1V518.9h18.2m15-15H728.1V606.4h48.2V503.9Z"/>
        </g>
        <path class="cls-3" d="M761.3,518.9v72.5H743.1V518.9h18.2m15-15H728.1V606.4h48.2V503.9Z"/>
      </g>
      <g>
        <rect class="cls-5" x="763.1" y="493.3" width="46.4" height="123.52"/>
        <path class="cls-3" d="M801.9,500.8V609.4H770.6V500.8h31.3m15-15H755.6V624.4h61.3V485.8Z"/>
      </g>
    </g>
    <g>
      <path class="cls-3" d="M1364.7,994.1a18,18,0,1,1-18,18,18.1,18.1,0,0,1,18-18m0-15a33,33,0,1,0,33,33,33,33,0,0,0-33-33Z"/>
      <g>
        <path class="cls-8" d="M1396.6,1065.6a24.4,24.4,0,0,1-24.4-24.4V970.1a11.6,11.6,0,0,1,11.5-11.5h69.5a11.5,11.5,0,0,1,11.5,11.5v71.1a24.4,24.4,0,0,1-24.4,24.4Z"/>
        <path class="cls-3" d="M1453.2,966.1a4,4,0,0,1,4,4v71.1a16.9,16.9,0,0,1-16.9,16.9h-43.7a16.9,16.9,0,0,1-16.9-16.9V970.1a4,4,0,0,1,4-4h69.5m0-15h-69.5a19,19,0,0,0-19,19v71.1a31.9,31.9,0,0,0,31.9,31.9h43.7a31.9,31.9,0,0,0,31.9-31.9V970.1a19,19,0,0,0-19-19Z"/>
      </g>
      <g class="cls-9">
        <path d="M1453.4,951.1a10.9,10.9,0,0,0-10.9,11v62a19.1,19.1,0,0,1-19.1,19h-44.7l3,19c0,6.1-11.9,11-5.8,11l85.8-12,10.8-91A19.1,19.1,0,0,0,1453.4,951.1Z"/>
      </g>
      <path class="cls-3" d="M1453.2,966.1a4,4,0,0,1,4,4.1v70.9a17,17,0,0,1-17,17h-43.5a17,17,0,0,1-17-17V970.2a4,4,0,0,1,4-4.1h69.5m0-15h-69.5a19.1,19.1,0,0,0-19,19.1v70.9a32,32,0,0,0,32,32h43.5a32,32,0,0,0,32-32V970.2a19.1,19.1,0,0,0-19-19.1Z"/>
      <path class="cls-10" d="M1471.9,882.5"/>
      <path class="cls-11" d="M1449.9,842.6h-24.6a10.8,10.8,0,1,0,0,21.6h27.2a11,11,0,0,1,12.3,10.8,10.8,10.8,0,0,1-10.9,10.8h-60a10.4,10.4,0,0,0-6,1.9,10.6,10.6,0,0,0-4.7,8.9,10.8,10.8,0,0,0,10.8,10.9h88.8a10.9,10.9,0,1,1,0,21.7h-49.2a10.8,10.8,0,0,0-10.8,10.8"/>
    </g>
    <g>
      <g>
        <path class="cls-12" d="M414.2,1063.6a24,24,0,0,1,0-48h135a24,24,0,1,1,0,48Z"/>
        <path class="cls-3" d="M549.2,1023.1a16.5,16.5,0,1,1,0,33h-135a16.5,16.5,0,0,1,0-33h135m0-15h-135a31.5,31.5,0,0,0,0,63h135a31.5,31.5,0,1,0,0-63Z"/>
      </g>
      <rect class="cls-13" x="406.7" y="1029.1" width="151" height="21" rx="10.5"/>
    </g>
    <g>
      <g>
        <path class="cls-14" d="M414.2,1015.6a24,24,0,1,1,0-48h135a24,24,0,0,1,0,48Z"/>
        <path class="cls-3" d="M549.2,975.1a16.5,16.5,0,0,1,0,33h-135a16.5,16.5,0,1,1,0-33h135m0-15h-135a31.5,31.5,0,1,0,0,63h135a31.5,31.5,0,0,0,0-63Z"/>
      </g>
      <rect class="cls-13" x="406.7" y="981.1" width="151" height="21" rx="10.5"/>
    </g>
    <g>
      <rect class="cls-15" x="1353.5" y="589.5" width="26.6" height="79.27" rx="8" transform="translate(1888.3 2040.5) rotate(-135)"/>
      <rect class="cls-15" x="1444.4" y="567.4" width="26.6" height="231.46" rx="13.3" transform="translate(-56.1 1230.8) rotate(-45)"/>
      <rect class="cls-15" x="1517.1" y="743" width="26.6" height="297.09" rx="13.3"/>
      <rect class="cls-15" x="1415.1" y="1017.9" width="230.6" height="53.21" rx="15.9"/>
      <path class="cls-15" d="M1264,827.6l-95.7-95.8a18.9,18.9,0,0,1,5.7-30.7l149.7-66.3a19,19,0,0,1,21.1,3.9l12.3,12.4a19,19,0,0,1,4,21.1l-66.4,149.7A18.9,18.9,0,0,1,1264,827.6Z"/>
      <path class="cls-16" d="M1629.1,1022.5H1615v7.3a15.9,15.9,0,0,1-15.9,15.9H1414.4v14.1a16,16,0,0,0,16,15.9h198.7a15.9,15.9,0,0,0,15.9-15.9v-21.4A15.9,15.9,0,0,0,1629.1,1022.5Z"/>
      <rect class="cls-17" x="1414.6" y="1018.2" width="230.6" height="53.21" rx="15.9"/>
    </g>
    <g>
      <path class="cls-18" d="M954.7,953.6c-17.3,0-36.6-20.1-55.9-58.2C881.5,861.2,864,811.5,848.2,752c-29-109.8-47-233.4-47-284.9,0-47.7,15-84.4,44.6-109,26.3-21.9,64-33.5,108.9-33.5s82.3,11.6,108.4,33.5c29.3,24.5,44.1,61.2,44.1,109,0,51.7-17.8,175.3-46.5,284.9-15.9,60.4-32.8,108.7-50.3,143.5C991.2,933.5,972,953.6,954.7,953.6Z"/>
      <path class="cls-3" d="M954.7,332.1c43,0,78.8,11,103.6,31.7,27.5,23.1,41.4,57.8,41.4,103.3,0,51.3-17.7,174-46.3,283-15.5,59.1-32.7,108.2-49.7,142s-35.2,54-49,54-31.8-19.7-49.2-54-34.4-83-50-142.1c-28.9-109.1-46.8-231.8-46.8-282.9,0-45.4,14.1-80.1,41.8-103.2,25.1-20.8,61.1-31.8,104.2-31.8m0-15c-88.6,0-161,44-161,150s72.4,494,161,494,160-388,160-494-71.4-150-160-150Z"/>
    </g>
    <g class="cls-9">
      <path d="M1049,339.1c14.1,22.3,22.2,51,22.2,86.6,0,106.1-71.4,494-160,494a34.6,34.6,0,0,1-8.4-1.1c16.2,26.2,33.4,42.1,51.4,42.1,88.6,0,160-387.9,160-494C1114.2,403.2,1088.6,362,1049,339.1Z"/>
    </g>
    <g>
      <g>
        <g>
          <rect class="cls-5" x="735.6" y="511.4" width="33.2" height="87.51"/>
          <path class="cls-3" d="M761.3,518.9v72.5H743.1V518.9h18.2m15-15H728.1V606.4h48.2V503.9Z"/>
        </g>
        <g class="cls-6">
          <rect x="735.6" y="511.4" width="33.2" height="87.51"/>
          <path d="M761.3,518.9v72.5H743.1V518.9h18.2m15-15H728.1V606.4h48.2V503.9Z"/>
        </g>
        <path class="cls-3" d="M761.3,518.9v72.5H743.1V518.9h18.2m15-15H728.1V606.4h48.2V503.9Z"/>
      </g>
      <g>
        <rect class="cls-5" x="763.1" y="493.3" width="46.4" height="123.52"/>
        <path class="cls-3" d="M801.9,500.8V609.4H770.6V500.8h31.3m15-15H755.6V624.4h61.3V485.8Z"/>
      </g>
      <rect class="cls-7" x="766.6" y="496.1" width="20" height="116" transform="translate(1553.1 1108.2) rotate(-180)"/>
      <path class="cls-3" d="M801.9,500.8V609.4H770.6V500.8h31.3m15-15H755.6V624.4h61.3V485.8Z"/>
    </g>
    <path class="cls-3" d="M954.7,332.1c43,0,78.8,11,103.6,31.7,27.5,23.1,41.4,57.8,41.4,103.3,0,51.3-17.7,174-46.3,283-15.5,59.1-32.7,108.2-49.7,142s-35.2,54-49,54-31.8-19.7-49.2-54-34.4-83-50-142.1c-28.9-109.1-46.8-231.8-46.8-282.9,0-45.4,14.1-80.1,41.8-103.2,25.1-20.8,61.1-31.8,104.2-31.8m0-15c-88.6,0-161,44-161,150s72.4,494,161,494,160-388,160-494-71.4-150-160-150Z"/>
    <g>
      <path class="cls-19" d="M806.7,558.2c-3.2-3.6-9.8-13.1-20.4-38.1s-19.3-50.9-21-55.8c-7.4-22.7-13.8-49.7-4.6-77.8l1.5-4.2a128.7,128.7,0,0,1,9.4-18.8c16.6-27,74.3-68,150.2-74.4,2.4-.2,11.1-.9,23.7-.9,21.9,0,54.7,2,86.4,11.5,37.2,11.1,63.6,29.7,78.3,55.2,11.5,19.8,14.3,40.8,16.6,57.7,5.6,42.3-3.8,73.6-14.8,109.8-7.9,26.1-13.1,33-14.7,34.5-1.4-.7-5.1-3.7-10.2-12.3a130.5,130.5,0,0,1-10.8-24.3c-.1-.5-.4-1.2-.6-1.9a118.9,118.9,0,0,1-4.4-15.3c-.8-3.6-1.3-6.6-1.7-9.3-1.1-6.6-1.9-11.8-6.4-17.7-8.6-11.3-21.1-12.8-31-12.8-6.8,0-14,.8-22.5,1.6a307,307,0,0,1-34.1,2.3,178.2,178.2,0,0,1-19.6-1.1c-33.8-3.5-58.9-16-79.1-26-14.3-7-25.5-12.6-35.6-12.6a22.3,22.3,0,0,0-15,5.4c-6.9,6-7.4,12.7-8.2,26.1-.3,4.4-.7,10-1.4,16.9v1.8C813,516.1,810,547.5,806.7,558.2Z"/>
      <path class="cls-3" d="M945.5,295.7c21.4,0,53.4,2,84.3,11.2,35.3,10.5,60.1,27.9,73.9,51.7,10.8,18.6,13.5,38.8,15.6,55,5.5,40.7-3.8,71.3-14.5,106.7a179.5,179.5,0,0,1-8.8,24.4c-1.1-1.7-2.5-3.9-3.9-6.6a124.5,124.5,0,0,1-8.6-20c-.2-.7-.5-1.4-.8-2.2a109.9,109.9,0,0,1-4-14.4c-.8-3.5-1.3-6.3-1.7-8.9-1.1-7-2.2-13.6-7.9-21.1-10.7-14.1-26.2-15.7-36.9-15.7a220.6,220.6,0,0,0-23.2,1.7c-10,1-21.2,2.2-33.4,2.2-6.5,0-12.7-.4-18.8-1-32.5-3.4-56.9-15.6-76.6-25.3-15.1-7.5-27.1-13.4-38.9-13.4a29.7,29.7,0,0,0-19.9,7.2c-9.3,8.1-9.9,17.3-10.8,31.3-.3,4.4-.7,9.9-1.3,16.7V477c-2.3,24.2-4.1,43.3-5.8,57.3-.2,1.3-.4,2.5-.5,3.6-3-5.8-6.6-13.4-10.9-23.7-10-23.8-18-47.7-19.5-52.3-7.4-22.6-13.1-47.1-4.6-73,.4-1.3.9-2.6,1.4-3.9a122.6,122.6,0,0,1,8.8-17.5c6.2-10.2,22.2-26.4,48.1-41.2a233.1,233.1,0,0,1,96.4-29.7c2.3-.2,10.7-.9,23-.9m0-15c-13.1,0-22,.7-24.3.9-81.8,6.9-139.7,51.5-156,78a144.7,144.7,0,0,0-10,20c-.4,1-1,2.6-1.6,4.6-10.5,31.7-2.3,61.6,4.6,82.4,8,24.2,35.5,101.1,50,101.1h1c6.6-1.7,9.4-30.9,14.8-89.2.1-.3.1-1,.2-1.8,2.5-26.1.8-32.6,7-38a14.9,14.9,0,0,1,10.1-3.6c20.7,0,55.2,32.4,113.9,38.6a181.5,181.5,0,0,0,20.4,1.1c23.2,0,42.1-3.9,56.6-3.9,10.9,0,19.2,2.2,25,9.8s4,11.5,6.8,24.1a126.2,126.2,0,0,0,5.2,17.9c4.7,14.6,17.4,42,28.7,42h.3c2.6-.1,9.5-1.9,21-40s20.9-69.1,15-113c-2.3-17.2-5.3-39.4-17.5-60.5-36.1-62.4-127.1-70.4-171.2-70.4Z"/>
    </g>
    <path class="cls-3" d="M810.6,386.2a176.7,176.7,0,0,1,15.7,9.8c5,3.3,9.7,6.7,14.5,10.1,9.3,6.8,18.6,13.7,28.6,19.5l3.7,2.3,3.8,2.1c2.5,1.5,5.1,2.8,7.6,4.2l3.9,2,3.9,1.9,4,1.9,4,1.8c5.3,2.4,10.8,4.8,16.3,7l16.8,6.5L933,458a139.2,139.2,0,0,1-36.8-4.7,140.8,140.8,0,0,1-17.7-5.8,154.8,154.8,0,0,1-17.1-7.8l-4.1-2.3-4.1-2.3-7.9-5.2-7.6-5.5c-2.4-2-4.8-4-7-6.2a92.9,92.9,0,0,1-12.3-14.3,83,83,0,0,1-4.9-8.1,52.7,52.7,0,0,1-3.7-8.8Z"/>
    <path class="cls-16" d="M810.7,387.1c1-1.7,9.7,1.5,64,24s59.1,24.9,72,27c7.4,1.2,4.1.1,65,1,35.5.5,49.1,1.1,62,11s17.4,22.7,19,27c5.7,15.5.8,21.7,3,61,.6,10.5,1.3,16.7,0,17-3.4.8-16.1-37.2-18-43-5.9-17.7-6.8-23.3-13-31a56,56,0,0,0-23-17c-17.8-6.7-30.3.4-53,3-29,3.4-52.2-3.2-62-6-18.9-5.4-34.9-15.6-66-36C848.1,416.9,808.5,391,810.7,387.1Z"/>
    <g>
      <g>
        <path class="cls-20" d="M414.2,967.4a24,24,0,1,1,0-48h135a24,24,0,0,1,0,48Z"/>
        <path class="cls-3" d="M549.2,926.9a16.5,16.5,0,0,1,0,33h-135a16.5,16.5,0,1,1,0-33h135m0-15h-135a31.5,31.5,0,0,0-31.5,31.5h0a31.5,31.5,0,0,0,31.5,31.5h135a31.5,31.5,0,0,0,31.5-31.5h0a31.5,31.5,0,0,0-31.5-31.5Z"/>
      </g>
      <rect class="cls-13" x="406.7" y="932.9" width="151" height="21" rx="10.5"/>
    </g>
    <rect class="cls-7" x="394.7" y="944.1" width="155" height="20"/>
    <path class="cls-16" d="M805.7,547.1c-1,0-1.8-2.6-3-9a243.9,243.9,0,0,1-4-54c1-28.4,1.5-42.5,2-49,2.1-24.9,4.2-47.3,10-48,4.2-.5,5,11.1,19,25,7.6,7.6,13.9,10.6,13,14s-12.7,1.6-20,8-5.1,21-4,36C821.8,510.5,809.6,547.2,805.7,547.1Z"/>
    <rect class="cls-7" x="393.7" y="992.1" width="155" height="20"/>
    <rect class="cls-7" x="396.7" y="1040.1" width="155" height="20"/>
    <path class="cls-3" d="M945.5,295.7c21.4,0,53.4,2,84.3,11.2,35.3,10.5,60.1,27.9,73.9,51.7,10.8,18.6,13.5,38.8,15.6,55,5.5,40.7-3.8,71.3-14.5,106.7a179.5,179.5,0,0,1-8.8,24.4c-1.1-1.7-2.5-3.9-3.9-6.6a124.5,124.5,0,0,1-8.6-20c-.2-.7-.5-1.4-.8-2.2a109.9,109.9,0,0,1-4-14.4c-.8-3.5-1.3-6.3-1.7-8.9-1.1-7-2.2-13.6-7.9-21.1-10.7-14.1-26.2-15.7-36.9-15.7a220.6,220.6,0,0,0-23.2,1.7c-10,1-21.2,2.2-33.4,2.2-6.5,0-12.7-.4-18.8-1-32.5-3.4-56.9-15.6-76.6-25.3-15.1-7.5-27.1-13.4-38.9-13.4a29.7,29.7,0,0,0-19.9,7.2c-9.3,8.1-9.9,17.3-10.8,31.3-.3,4.4-.7,9.9-1.3,16.7V477c-2.3,24.2-4.1,43.3-5.8,57.3-.2,1.3-.4,2.5-.5,3.6-3-5.8-6.6-13.4-10.9-23.7-10-23.8-18-47.7-19.5-52.3-7.4-22.6-13.1-47.1-4.6-73,.4-1.3.9-2.6,1.4-3.9a122.6,122.6,0,0,1,8.8-17.5c6.2-10.2,22.2-26.4,48.1-41.2a233.1,233.1,0,0,1,96.4-29.7c2.3-.2,10.7-.9,23-.9m0-15c-13.1,0-22,.7-24.3.9-81.8,6.9-139.7,51.5-156,78a144.7,144.7,0,0,0-10,20c-.4,1-1,2.6-1.6,4.6-10.5,31.7-2.3,61.6,4.6,82.4,8,24.2,35.5,101.1,50,101.1h1c6.6-1.7,9.4-30.9,14.8-89.2.1-.3.1-1,.2-1.8,2.5-26.1.8-32.6,7-38a14.9,14.9,0,0,1,10.1-3.6c20.7,0,55.2,32.4,113.9,38.6a181.5,181.5,0,0,0,20.4,1.1c23.2,0,42.1-3.9,56.6-3.9,10.9,0,19.2,2.2,25,9.8s4,11.5,6.8,24.1a126.2,126.2,0,0,0,5.2,17.9c4.7,14.6,17.4,42,28.7,42h.3c2.6-.1,9.5-1.9,21-40s20.9-69.1,15-113c-2.3-17.2-5.3-39.4-17.5-60.5-36.1-62.4-127.1-70.4-171.2-70.4Z"/>
    <g>
      <path class="cls-3" d="M549.2,1023.3a16.5,16.5,0,0,1,0,33h-135a16.5,16.5,0,0,1,0-33h135m0-15h-135a31.5,31.5,0,0,0,0,63h135a31.5,31.5,0,0,0,0-63Z"/>
      <rect class="cls-21" x="406.7" y="1029.3" width="151" height="21" rx="10.5"/>
      <path class="cls-3" d="M549.2,975.3a16.5,16.5,0,0,1,0,33h-135a16.5,16.5,0,0,1,0-33h135m0-15h-135a31.5,31.5,0,0,0,0,63h135a31.5,31.5,0,0,0,0-63Z"/>
      <rect class="cls-21" x="406.7" y="981.3" width="151" height="21" rx="10.5"/>
      <path class="cls-3" d="M549.2,927.1a16.5,16.5,0,0,1,0,33h-135a16.5,16.5,0,1,1,0-33h135m0-15h-135a31.5,31.5,0,0,0-31.5,31.5h0a31.5,31.5,0,0,0,31.5,31.5h135a31.5,31.5,0,0,0,31.5-31.5h0a31.5,31.5,0,0,0-31.5-31.5Z"/>
      <rect class="cls-21" x="406.7" y="933.1" width="151" height="21" rx="10.5"/>
    </g>
    <path class="cls-3" d="M810.6,386.2a176.7,176.7,0,0,1,15.7,9.8c5,3.3,9.7,6.7,14.5,10.1,9.3,6.8,18.6,13.7,28.6,19.5l3.7,2.3,3.8,2.1c2.5,1.5,5.1,2.8,7.6,4.2l3.9,2,3.9,1.9,4,1.9,4,1.8c5.3,2.4,10.8,4.8,16.3,7l16.8,6.5L933,458a139.2,139.2,0,0,1-36.8-4.7,140.8,140.8,0,0,1-17.7-5.8,154.8,154.8,0,0,1-17.1-7.8l-4.1-2.3-4.1-2.3-7.9-5.2-7.6-5.5c-2.4-2-4.8-4-7-6.2a92.9,92.9,0,0,1-12.3-14.3,83,83,0,0,1-4.9-8.1,52.7,52.7,0,0,1-3.7-8.8Z"/>
    <g>
      <rect class="cls-3" x="864.7" y="521.1" width="21" height="71" rx="10.5"/>
      <rect class="cls-3" x="849.7" y="519.1" width="52" height="12.81" rx="6.4"/>
      <rect class="cls-3" x="998.5" y="522.3" width="21" height="69.84" rx="10.5"/>
      <rect class="cls-3" x="983.5" y="520.3" width="52" height="12.81" rx="6.4"/>
    </g>
    <g>
      <path class="cls-22" d="M330.7,1014.6a24.5,24.5,0,0,1-24.5-24.5v-37a24.5,24.5,0,0,1,49,0v37A24.5,24.5,0,0,1,330.7,1014.6Z"/>
      <path class="cls-3" d="M330.7,936.1a17,17,0,0,1,17,17v37a17,17,0,0,1-34,0v-37a17,17,0,0,1,17-17m0-15h0a32,32,0,0,0-32,32v37a32,32,0,0,0,32,32h0a32,32,0,0,0,32-32v-37a32,32,0,0,0-32-32Z"/>
    </g>
    <g>
      <path class="cls-23" d="M538.2,1063.6v-413a22.1,22.1,0,0,1,22-22h751a22.1,22.1,0,0,1,22,22v413Z"/>
      <path class="cls-3" d="M1311.2,636.1a14.5,14.5,0,0,1,14.5,14.5v405.5h-780V650.6a14.5,14.5,0,0,1,14.5-14.5h751m0-15h-751a29.5,29.5,0,0,0-29.5,29.5v420.5h810V650.6a29.5,29.5,0,0,0-29.5-29.5Z"/>
    </g>
    <g class="cls-2">
      <circle cx="934.7" cy="846.1" r="72"/>
    </g>
    <g class="cls-2">
      <path d="M1311.2,621.1h-20.5V991.6a29.5,29.5,0,0,1-29.5,29.5H530.7v50h810V650.6A29.5,29.5,0,0,0,1311.2,621.1Z"/>
    </g>
    <path class="cls-3" d="M1311.2,636.1a14.5,14.5,0,0,1,14.5,14.5v405.5h-780V650.6a14.5,14.5,0,0,1,14.5-14.5h751m0-15h-751a29.5,29.5,0,0,0-29.5,29.5v420.5h810V650.6a29.5,29.5,0,0,0-29.5-29.5Z"/>
    <path class="cls-3" d="M956.8,876.4a62.8,62.8,0,0,1-20.7,3.7c-10.2,0-18.6-2.6-25.2-8.9s-9.4-14.6-9.4-25.1c.1-20.1,13.9-34.8,36.5-34.8,7.8,0,13.9,1.7,16.8,3.1l-2.1,7.1a34.9,34.9,0,0,0-14.9-2.9c-16.4,0-27.1,10.2-27.1,27.1s10.3,27.2,26,27.2c5.7,0,9.6-.8,11.6-1.8V851H934.6v-7h22.2Z"/>
    <g>
      <path class="cls-24" d="M235.7,1108.6a22.5,22.5,0,0,1,0-45h1414a22.5,22.5,0,1,1,0,45Z"/>
      <path class="cls-3" d="M1649.7,1071.1a15,15,0,1,1,0,30H235.7a15,15,0,0,1,0-30h1414m0-15H235.7a30,30,0,0,0,0,60h1414a30,30,0,1,0,0-60Z"/>
    </g>
    <g>
      <polygon class="cls-25" points="302.7 1063.6 284 978.6 376.5 978.6 358.6 1063.6 302.7 1063.6"/>
      <path class="cls-3" d="M367.2,986.1l-14.7,70H308.8l-15.4-70h73.8m18.5-15h-111l22,100h68l21-100Z"/>
    </g>
    <g>
      <rect class="cls-22" x="317.7" y="948.1" width="12" height="7" rx="3.5"/>
      <path class="cls-3" d="M326.2,948.1h-5a3.5,3.5,0,1,0,0,7h5a3.5,3.5,0,0,0,0-7Z"/>
    </g>
    <g>
      <rect class="cls-22" x="332.7" y="958.1" width="12" height="7" rx="3.5"/>
      <path class="cls-3" d="M341.2,958.1h-5a3.5,3.5,0,1,0,0,7h5a3.5,3.5,0,0,0,0-7Z"/>
    </g>
    <g class="cls-9">
      <polygon points="349.5 971 334.8 1041 290.2 1041 296.8 1071 364.8 1071 385.8 971 349.5 971"/>
    </g>
    <path class="cls-3" d="M367.2,986.1l-14.7,70H308.8l-15.4-70h73.8m18.5-15h-111l22,100h68l21-100Z"/>
    <path class="cls-1" d="M981,1441.3a111.5,111.5,0,0,1,35.8,5.8,114.6,114.6,0,0,0-36.3-5.9q-4.7,0-9.3.3h2.4Z"/>
    <g>
      <path class="cls-3" d="M614.6,762.3,625,729.9l3.2,3.2-9,27h.1l27-9,3.2,3.2-32.4,10.4Z"/>
      <path class="cls-3" d="M654.3,753.3l-20.5-46.2,3.1-3.2,20.5,46.3Z"/>
      <path class="cls-3" d="M681.7,700.3l-10.4,32.3-3.2-3.2,9.1-27.2h-.1L650,711.3l-3.2-3.2,32.3-10.4Z"/>
    </g>
    <g>
      <path class="cls-3" d="M1174.5,864.3l3.7,3.7-12.8,12.8h.1a9.5,9.5,0,0,1,5.3,0,11.6,11.6,0,0,1,4.9,2.8c2.7,2.8,5.4,8.9-1.6,15.9l-12.3,12.3-3.7-3.8,11.8-11.8c3.3-3.3,4.9-7.3,1.3-10.8a7.5,7.5,0,0,0-8.7-1.3,6.5,6.5,0,0,0-2,1.5l-12.4,12.4-3.7-3.7Z"/>
      <path class="cls-3" d="M1198.7,895.8l-5.9,5.9,5.3,5.4-2.8,2.8-5.4-5.3-11.1,11c-2.5,2.6-3.2,4.8-1.1,6.8a8.5,8.5,0,0,0,2.4,1.9l-2.7,3a12.4,12.4,0,0,1-3.8-2.8,7.1,7.1,0,0,1-2.4-5.6c0-2.2,1.5-4.4,3.9-6.8l11.2-11.2-3.2-3.2,2.8-2.8,3.2,3.2,4.9-4.9Z"/>
      <path class="cls-3" d="M1196.7,916.8a67.8,67.8,0,0,0,5.4-5.7l3.3,3.3-3.1,3.5h.1a10,10,0,0,1,10.2,2.7,8.6,8.6,0,0,1,1.7,9.9h.1a12.5,12.5,0,0,1,5-.4,9.5,9.5,0,0,1,5.9,3.1c2.8,2.7,5,8.5-2.1,15.6l-12.1,12.1-3.7-3.6,11.7-11.6c3.9-4,4.8-7.8,1.8-10.8a6.8,6.8,0,0,0-7.8-1,5.8,5.8,0,0,0-2.1,1.5l-12.7,12.7-3.7-3.6,12.3-12.3c3.3-3.3,4.2-7.1,1.4-10s-5.9-2.1-8.4-.9a7.8,7.8,0,0,0-2.1,1.6l-12.4,12.4-3.6-3.7Z"/>
      <path class="cls-3" d="M1247.3,937.1l3.7,3.7-30.1,30.1-3.7-3.7Z"/>
    </g>
    <rect class="cls-4" x="750.2" y="497.6" width="7" height="5"/>
  </g>
</svg>
