<?xml version="1.0" encoding="utf-8"?>
<!-- Generator: Adobe Illustrator 25.2.0, SVG Export Plug-In . SVG Version: 6.00 Build 0)  -->
<svg version="1.1" id="Слой_1" xmlns="http://www.w3.org/2000/svg" xmlns:xlink="http://www.w3.org/1999/xlink" x="0px" y="0px"
	 viewBox="0 0 54 54" style="enable-background:new 0 0 54 54;" xml:space="preserve">
<style type="text/css">
	.st0{fill:#2DABA4;}
</style>
<path class="st0" d="M39.1,0H15.3C7.3,0,0.7,6.6,0.7,14.6v23.8C0.7,46.4,7.3,53,15.3,53h23.8c8.1,0,14.6-6.6,14.6-14.6V14.6
	C53.7,6.6,47.1,0,39.1,0z M49,38.4c0,5.5-4.5,9.9-9.9,9.9H15.3c-5.5,0-9.9-4.5-9.9-9.9V14.6c0-5.5,4.5-9.9,9.9-9.9h23.8
	c5.5,0,9.9,4.5,9.9,9.9L49,38.4L49,38.4z"/>
<path class="st0" d="M27.2,12.8c-7.5,0-13.7,6.1-13.7,13.7c0,7.5,6.1,13.7,13.7,13.7c7.5,0,13.7-6.1,13.7-13.7
	C40.9,19,34.7,12.8,27.2,12.8z M27.2,35.5c-4.9,0-9-4-9-9c0-4.9,4-9,9-9c4.9,0,9,4,9,9C36.2,31.4,32.1,35.5,27.2,35.5z"/>
<path class="st0" d="M41.4,8.9c-0.9,0-1.8,0.4-2.4,1c-0.6,0.6-1,1.5-1,2.4c0,0.9,0.4,1.8,1,2.4c0.6,0.6,1.5,1,2.4,1
	c0.9,0,1.8-0.4,2.4-1c0.6-0.6,1-1.5,1-2.4c0-0.9-0.4-1.8-1-2.4C43.2,9.2,42.3,8.9,41.4,8.9z"/>
</svg>
