<svg width="54" height="54" viewBox="0 0 54 54" fill="none" xmlns="http://www.w3.org/2000/svg">
<path d="M39.0727 0H15.3202C7.25394 0 0.691528 6.56273 0.691528 14.629V38.3815C0.691528 46.448 7.25394 53.0104 15.3202 53.0104H39.0727C47.1395 53.0104 53.702 46.4477 53.702 38.3815V14.629C53.7023 6.56273 47.1395 0 39.0727 0ZM48.9989 38.3815C48.9989 43.8546 44.5461 48.3071 39.073 48.3071H15.3202C9.84737 48.3074 5.39487 43.8546 5.39487 38.3815V14.629C5.39487 9.15615 9.84737 4.70334 15.3202 4.70334H39.0727C44.5458 4.70334 48.9986 9.15615 48.9986 14.629V38.3815H48.9989Z" fill="black"/>
<path d="M27.1967 12.8464C19.6648 12.8464 13.5373 18.9739 13.5373 26.5059C13.5373 34.0375 19.6648 40.1647 27.1967 40.1647C34.7287 40.1647 40.8562 34.0375 40.8562 26.5059C40.8562 18.9739 34.7287 12.8464 27.1967 12.8464ZM27.1967 35.461C22.2585 35.461 18.2406 31.4438 18.2406 26.5056C18.2406 21.5671 22.2582 17.5495 27.1967 17.5495C32.1353 17.5495 36.1528 21.5671 36.1528 26.5056C36.1528 31.4438 32.1349 35.461 27.1967 35.461Z" fill="black"/>
<path d="M41.4291 8.85815C40.5229 8.85815 39.6327 9.22502 38.9927 9.86781C38.3496 10.5075 37.9799 11.398 37.9799 12.3073C37.9799 13.2138 38.3499 14.1039 38.9927 14.7467C39.6324 15.3864 40.5229 15.7564 41.4291 15.7564C42.3384 15.7564 43.2257 15.3864 43.8685 14.7467C44.5113 14.1039 44.8782 13.2134 44.8782 12.3073C44.8782 11.398 44.5113 10.5075 43.8685 9.86781C43.2289 9.22502 42.3384 8.85815 41.4291 8.85815Z" fill="black"/>
</svg>
