<?xml version="1.0" encoding="utf-8"?>
<!-- Generator: Adobe Illustrator 25.2.0, SVG Export Plug-In . SVG Version: 6.00 Build 0)  -->
<svg version="1.1" id="Слой_1" xmlns="http://www.w3.org/2000/svg" xmlns:xlink="http://www.w3.org/1999/xlink" x="0px" y="0px"
	 viewBox="0 0 62 54" style="enable-background:new 0 0 62 54;" xml:space="preserve">
<style type="text/css">
	.st0{fill:#2DABA4;}
</style>
<path class="st0" d="M1.1,25.4l14.3,5.2l5.5,17.5c0.4,1.1,1.7,1.5,2.7,0.8l7.9-6.4c0.8-0.7,2-0.7,2.9-0.1l14.3,10.2
	c1,0.7,2.4,0.2,2.6-1L61.8,2c0.3-1.3-1-2.4-2.2-1.9L1.1,22.3C-0.4,22.9-0.4,24.9,1.1,25.4z M20,27.9L47.8,11c0.5-0.3,1,0.4,0.6,0.8
	l-23,21c-0.8,0.7-1.3,1.7-1.5,2.8l-0.8,5.7c-0.1,0.8-1.2,0.8-1.4,0.1l-3-10.4C18.4,29.8,18.9,28.5,20,27.9z"/>
</svg>
