<svg width="62" height="54" viewBox="0 0 62 54" fill="none" xmlns="http://www.w3.org/2000/svg">
<path d="M1.09238 25.4185L15.3429 30.6546L20.8588 48.1179C21.2117 49.2364 22.601 49.6498 23.5231 48.9076L31.4666 42.5325C32.2992 41.8646 33.4852 41.8313 34.3554 42.4531L48.6826 52.6934C49.6691 53.3993 51.0666 52.8671 51.314 51.6937L61.8094 1.99287C62.0795 0.71103 60.8001 -0.358317 59.5603 0.113746L1.07568 22.3249C-0.367595 22.8729 -0.35502 24.8845 1.09238 25.4185ZM19.9698 27.8673L47.8207 10.9803C48.3213 10.6777 48.8362 11.344 48.4064 11.7365L25.4213 32.7704C24.6134 33.5107 24.0923 34.5015 23.9447 35.577L23.1617 41.2892C23.058 42.0519 21.9697 42.1276 21.7559 41.3895L18.7447 30.973C18.3998 29.7849 18.9024 28.5159 19.9698 27.8673Z" fill="black"/>
</svg>
